<svg xmlns="http://www.w3.org/2000/svg" version="1.1" xmlns:xlink="http://www.w3.org/1999/xlink" xmlns:svgjs="http://svgjs.com/svgjs" width="712" height="712" x="0" y="0" viewBox="0 0 128 128" style="enable-background:new 0 0 512 512" xml:space="preserve" class=""><g><g><path d="m109 55.713v39.417a9.456 9.456 0 0 1 -9.457 9.457h-71.086a9.456 9.456 0 0 1 -9.457-9.457v-39.417a9.456 9.456 0 0 1 9.457-9.457h27.283v5.006a4.556 4.556 0 0 0 4.549 4.56h9.3a4.566 4.566 0 0 0 4.56-4.56v-5.006h25.394a9.456 9.456 0 0 1 9.457 9.457z" fill="#3f8efc" data-original="#3f8efc" class=""></path><g fill="#f8f9e8"><path d="m54.877 91.311h-21.727a1.751 1.751 0 0 1 -1.75-1.75v-4.082a11.745 11.745 0 0 1 11.732-11.732h1.768a11.745 11.745 0 0 1 11.727 11.732v4.082a1.751 1.751 0 0 1 -1.75 1.75zm-19.977-3.5h18.227v-2.332a8.242 8.242 0 0 0 -8.227-8.232h-1.768a8.242 8.242 0 0 0 -8.232 8.232z" fill="#f8f9e8" data-original="#f8f9e8" class=""></path><path d="m44.014 77.247a8.857 8.857 0 1 1 8.886-8.856 8.88 8.88 0 0 1 -8.886 8.856zm0-14.214a5.357 5.357 0 1 0 5.386 5.358 5.377 5.377 0 0 0 -5.386-5.358z" fill="#f8f9e8" data-original="#f8f9e8" class=""></path></g><path d="m74.154 27.962v23.3a4.566 4.566 0 0 1 -4.56 4.56h-9.3a4.556 4.556 0 0 1 -4.549-4.56v-23.3a4.547 4.547 0 0 1 4.549-4.549h9.3a4.556 4.556 0 0 1 4.56 4.549z" fill="#1058e8" data-original="#1058e8"></path><circle cx="64.947" cy="39.617" fill="#ffffff" r="3.254" data-original="#ffffff"></circle><g fill="#f8f9e8"><path d="m66.843 71.4h7.657a1.75 1.75 0 0 0 0-3.5h-7.657a1.75 1.75 0 0 0 0 3.5z" fill="#f8f9e8" data-original="#f8f9e8" class=""></path><path d="m83.916 71.4h13.122a1.75 1.75 0 0 0 0-3.5h-13.122a1.75 1.75 0 0 0 0 3.5z" fill="#f8f9e8" data-original="#f8f9e8" class=""></path><path d="m97.038 75.54h-30.195a1.75 1.75 0 0 0 0 3.5h30.195a1.75 1.75 0 0 0 0-3.5z" fill="#f8f9e8" data-original="#f8f9e8" class=""></path><path d="m84.058 83.176h-17.215a1.75 1.75 0 0 0 0 3.5h17.215a1.75 1.75 0 0 0 0-3.5z" fill="#f8f9e8" data-original="#f8f9e8" class=""></path><path d="m97.038 83.176h-3.907a1.75 1.75 0 0 0 0 3.5h3.907a1.75 1.75 0 0 0 0-3.5z" fill="#f8f9e8" data-original="#f8f9e8" class=""></path></g></g></g></svg>