<svg xmlns="http://www.w3.org/2000/svg" version="1.1" xmlns:xlink="http://www.w3.org/1999/xlink" xmlns:svgjs="http://svgjs.com/svgjs" width="512" height="512" x="0" y="0" viewBox="0 0 511.999 511.999" style="enable-background:new 0 0 512 512" xml:space="preserve" class=""><g>
<g>
	<path style="" d="M208.949,455.658c-47.026-9.217-89.964-32.17-124.17-66.377   c-45.734-45.733-70.921-106.54-70.921-171.219v-15h95v30H44.377c3.54,51.018,25.104,98.494,61.616,135.006   c29.975,29.976,67.572,50.084,108.727,58.15L208.949,455.658z" fill="#edf5ff" data-original="#edf5ff"></path>
	<path style="" d="M303.535,455.555l-6.744-29.232c40.861-9.428,82.71-31.75,109.214-58.254   c36.513-36.512,58.076-83.988,61.616-135.006H403.14v-30h95v15c0,64.679-25.188,125.485-70.922,171.219   C396.502,419.997,350.266,444.771,303.535,455.555z" fill="#d7e9ff" data-original="#d7e9ff" class=""></path>
	<polygon style="" points="207.626,366.906 189.205,491.399 322.793,491.399 304.373,366.906  " fill="#fdab29" data-original="#fdab29" class=""></polygon>
	<polygon style="" points="256.001,491.399 322.793,491.399 304.373,366.906 256.001,366.906  " fill="#f07f22" data-original="#f07f22"></polygon>
	<path style="" d="M255.999,380.203c-89.404,0-162.14-72.736-162.14-162.141V15H418.14v203.063   C418.14,307.467,345.404,380.203,255.999,380.203z" fill="#f3c86a" data-original="#f3c86a"></path>
	<path style="" d="M255.999,380.203V15H418.14v203.063C418.14,307.467,345.404,380.203,255.999,380.203z" fill="#fdab29" data-original="#fdab29" class=""></path>
	<rect x="61.448" style="" width="389.102" height="30" fill="#fdab29" data-original="#fdab29" class=""></rect>
	<rect x="255.948" style="" width="194.603" height="30" fill="#f07f22" data-original="#f07f22"></rect>
	<rect x="168.411" y="481.999" style="" width="175.177" height="30" fill="#f3c86a" data-original="#f3c86a"></rect>
	<rect x="255.948" y="481.999" style="" width="87.64" height="30" fill="#fdab29" data-original="#fdab29" class=""></rect>
	<path style="" d="M255.999,322.971c-27.696,0-55.383-10.538-76.468-31.623   c-20.426-20.426-31.674-47.583-31.674-76.469s11.249-56.043,31.674-76.468c20.425-20.426,47.583-31.675,76.468-31.675   s56.043,11.249,76.469,31.675c42.164,42.164,42.164,110.771,0,152.937l0,0C311.388,312.428,283.689,322.971,255.999,322.971z" fill="#edf5ff" data-original="#edf5ff"></path>
	<path style="" d="M255.999,322.971c0-4.027,0-216.234,0-216.234c28.886,0,56.043,11.249,76.469,31.675   c42.164,42.164,42.164,110.771,0,152.937l0,0C311.388,312.428,283.689,322.971,255.999,322.971z" fill="#d7e9ff" data-original="#d7e9ff" class=""></path>
	<polygon style="" points="287.518,260.624 255.999,247.431 224.48,260.624 227.287,226.571 205.001,200.671    238.254,192.818 256,163.616 273.744,192.818 306.998,200.671 284.711,226.571  " fill="#6598ea" data-original="#6598ea"></polygon>
	<polygon style="" points="287.518,260.624 255.999,247.431 256,163.616 273.744,192.818 306.998,200.671    284.711,226.571  " fill="#326ed3" data-original="#326ed3"></polygon>
</g>















</g></svg>