<svg xmlns="http://www.w3.org/2000/svg" version="1.1" xmlns:xlink="http://www.w3.org/1999/xlink" xmlns:svgjs="http://svgjs.com/svgjs" width="512" height="512" x="0" y="0" viewBox="0 0 64 64" style="enable-background:new 0 0 512 512" xml:space="preserve" class=""><g><linearGradient id="linear-gradient" gradientUnits="userSpaceOnUse" x1="36" x2="36" y1="57" y2="15"><stop offset="0" stop-color="#d3e6f5"></stop><stop offset="1" stop-color="#f0f7fc"></stop></linearGradient><linearGradient id="linear-gradient-2" gradientUnits="userSpaceOnUse" x1="11" x2="11" y1="40.36" y2="15"><stop offset="0" stop-color="#54a5ff"></stop><stop offset="1" stop-color="#8ad3fe"></stop></linearGradient><linearGradient id="linear-gradient-3" gradientUnits="userSpaceOnUse" x1="37" x2="57" y1="37.14" y2="37.14"><stop offset="0" stop-color="#fe9661"></stop><stop offset="1" stop-color="#ffb369"></stop></linearGradient><g id="Blogging"><path d="m47 57h-34a6 6 0 0 1 -6-6 2 2 0 0 1 2-2h30a2 2 0 0 1 2 2 6 6 0 0 0 6 6z" fill="#b4cde1" data-original="#b4cde1" class=""></path><path d="m53 9v6h-34v-6a2 2 0 0 1 2-2h30a2 2 0 0 1 2 2z" fill="#b4cde1" data-original="#b4cde1" class=""></path><path d="m37 34v8a4 4 0 0 0 4 4h12v4.79a6.15 6.15 0 0 1 -5.21 6.21 6 6 0 0 1 -6.79-6 2 2 0 0 0 -2-2h-20v-34h34v15h-12a4 4 0 0 0 -4 4z" fill="url(#linear-gradient)" data-original="url(#linear-gradient)" class=""></path><circle cx="24" cy="11" fill="#0668cb" r="1" data-original="#0668cb"></circle><circle cx="28" cy="11" fill="#54a5ff" r="1" data-original="#54a5ff"></circle><circle cx="32" cy="11" fill="#f0f7fc" r="1" data-original="#f0f7fc" class=""></circle><rect fill="#d7e9f7" height="9" rx="1.91" width="11" x="23" y="19" data-original="#d7e9f7" class=""></rect><path d="m48 21.12h-10a1.12 1.12 0 1 1 0-2.24h10a1.12 1.12 0 0 1 0 2.24z" fill="#b4cde1" data-original="#b4cde1" class=""></path><path d="m48 26.12h-10a1.12 1.12 0 1 1 0-2.24h10a1.12 1.12 0 0 1 0 2.24z" fill="#b4cde1" data-original="#b4cde1" class=""></path><path d="m14 15v25.36a4 4 0 0 0 -6 0v-25.36z" fill="url(#linear-gradient-2)" data-original="url(#linear-gradient-2)"></path><path d="m10 9h2a2 2 0 0 1 2 2v4a0 0 0 0 1 0 0h-6a0 0 0 0 1 0 0v-4a2 2 0 0 1 2-2z" fill="#4795ea" data-original="#4795ea"></path><path d="m56.28 44.28a4 4 0 0 1 -3.28 1.72h-12a4 4 0 0 1 -3.28-1.72l5.57-5.57a1 1 0 0 1 1.42 0l3.58 3.58a1 1 0 0 0 1.42 0l1.58-1.58a1 1 0 0 1 1.42 0z" fill="#f0f7fc" data-original="#f0f7fc" class=""></path><path d="m57 34v8a4 4 0 0 1 -.72 2.28l-3.57-3.57a1 1 0 0 0 -1.42 0l-1.58 1.58a1 1 0 0 1 -1.42 0l-3.58-3.58a1 1 0 0 0 -1.42 0l-5.57 5.57a4 4 0 0 1 -.72-2.28v-8a4 4 0 0 1 4-4h12a4 4 0 0 1 4 4z" fill="url(#linear-gradient-3)" data-original="url(#linear-gradient-3)" class=""></path><g fill="#f0f7fc"><circle cx="50.5" cy="35.5" r="2.5" fill="#f0f7fc" data-original="#f0f7fc" class=""></circle><path d="m33 34h-9a1 1 0 0 1 0-2h9a1 1 0 0 1 0 2z" fill="#f0f7fc" data-original="#f0f7fc" class=""></path><path d="m33 39h-9a1 1 0 0 1 0-2h9a1 1 0 0 1 0 2z" fill="#f0f7fc" data-original="#f0f7fc" class=""></path><path d="m33 44h-9a1 1 0 0 1 0-2h9a1 1 0 0 1 0 2z" fill="#f0f7fc" data-original="#f0f7fc" class=""></path></g><path d="m14 40.36-3 4.64-3-4.64a4 4 0 0 1 6 0z" fill="#8ad3fe" data-original="#8ad3fe"></path></g></g></svg>