<svg xmlns="http://www.w3.org/2000/svg" version="1.1" xmlns:xlink="http://www.w3.org/1999/xlink" xmlns:svgjs="http://svgjs.com/svgjs"  width="512" height="512" x="0" y="0" viewBox="-50 -50 600 600" style="enable-background:new 0 0 512 512" xml:space="preserve" class=""><g><path fill="#5e6b75" d="M496.781 231.496c-4.169-.125-7.383-3.762-7.383-7.933v-95.481a7 7 0 0 0-7-7h-21.536c-4.171 0-7.808-3.214-7.933-7.383a7.617 7.617 0 0 1 7.614-7.852h36.473a7.617 7.617 0 0 1 7.617 7.617v110.418a7.618 7.618 0 0 1-7.852 7.614zM444.769 477.788a7.617 7.617 0 0 1-7.617-7.617v-44.088c0-4.207 3.41-7.617 7.617-7.617s7.617 3.41 7.617 7.617v44.088a7.617 7.617 0 0 1-7.617 7.617z" data-original="#5e6b75" class=""></path><path fill="#b9def9" d="M371.598 31.548H38.79a7.11 7.11 0 0 0-7.109 7.109v458.999a7.11 7.11 0 0 0 7.109 7.109h332.808a7.11 7.11 0 0 0 7.109-7.109V38.657a7.11 7.11 0 0 0-7.109-7.109z" data-original="#b9def9" class=""></path><path fill="#f0fcff" d="M321.261 0H7.242A7.11 7.11 0 0 0 .133 7.109v458.999a7.11 7.11 0 0 0 7.109 7.109h292.595l28.533-47.322V7.109A7.11 7.11 0 0 0 321.261 0z" data-original="#f0fcff" class=""></path><path fill="#d7ecfe" d="M340.05 0h-30.469a7.11 7.11 0 0 1 7.109 7.109v418.787l-1.651 15.768 32.12-15.768V7.109A7.11 7.11 0 0 0 340.05 0z" data-original="#d7ecfe"></path><path fill="#9dcffd" d="M299.837 473.218v-40.212a7.11 7.11 0 0 1 7.109-7.109h40.212z" data-original="#9dcffd" class=""></path><path fill="#d7ecfe" d="m460.542 66.143-15.774 15.774-15.774-15.774V50.369c0-8.712 7.062-15.774 15.774-15.774s15.774 7.062 15.774 15.774z" data-original="#d7ecfe"></path><path fill="#808b95" d="M441.452 444.717h-5.285a8.124 8.124 0 0 1-8.062-7.117l-6.997-55.978 8.426-47.322-8.426-47.322V73.252a7.11 7.11 0 0 1 7.109-7.109h21.185a7.11 7.11 0 0 1 7.109 7.109v308.369l-6.997 55.978a8.124 8.124 0 0 1-8.062 7.118z" data-original="#808b95" class=""></path><path fill="#5e6b75" d="M461.32 66.143h-30.469a7.11 7.11 0 0 1 7.109 7.109v308.369l-6.997 55.978a8.094 8.094 0 0 1-1.429 3.685 8.122 8.122 0 0 0 6.633 3.432h17.203a8.124 8.124 0 0 0 8.062-7.117l6.997-55.978-11.918-47.322 11.918-47.322V73.252a7.11 7.11 0 0 0-7.109-7.109z" data-original="#5e6b75" class=""></path><path fill="#ffe177" d="M444.495 129.238h-22.923a7 7 0 0 1-7-7V104.69a7 7 0 0 1 7-7h22.923l8.699 15.774z" data-original="#ffe177"></path><path fill="#f9d45d" d="M444.495 97.69v31.548h23.469a7 7 0 0 0 7-7V104.69a7 7 0 0 0-7-7z" data-original="#f9d45d" class=""></path><path fill="#ffe177" d="M468.429 381.621h-47.321v-94.643h47.321l-11.917 47.321z" data-original="#ffe177"></path><path fill="#f9d45d" d="M437.96 286.978h30.469v94.644H437.96z" data-original="#f9d45d" class=""></path><path fill="#d6edff" d="m47.455 142.671 130.038 35.681 122.345-.011V48.028H54.455a7 7 0 0 0-7 7z" data-original="#d6edff"></path><path fill="#b9def9" d="M269.368 48.028v107.068l15.234 23.246 15.235-.001V55.028a7 7 0 0 0-7-7z" data-original="#b9def9" class=""></path><circle cx="184.077" cy="95.349" r="15.774" fill="#ffe177" data-original="#ffe177"></circle><path fill="#abdc94" d="m228.136 130.314-47.88 38.304-99.542-59.206-33.259 33.259v40.322a7 7 0 0 0 7 7h120.27l2.767-11.641 27.702 11.641h64.175l15.234-11.651-15.234-23.246-32.614-24.881a6.999 6.999 0 0 0-8.619.099z" data-original="#abdc94"></path><g fill="#8ccf75"><path d="m90.193 99.933-9.479 9.479 94.011 80.581h30.469L99.698 99.568a7 7 0 0 0-9.505.365zM269.368 189.993h23.469a7 7 0 0 0 7-7v-4.652l-30.469-23.245z" fill="#8ccf75" data-original="#8ccf75"></path></g><path fill="#d6edff" d="m173.646 362.095-64.218 43.767-61.974-12.219v-87.644a7 7 0 0 1 7-7h112.191a7 7 0 0 1 7 7v56.096z" data-original="#d6edff"></path><path fill="#abdc94" d="m47.455 393.642 19.084-23.24 44.012 11.416 22.529-27.934L162 365.125l11.647 22.687v30.377a7 7 0 0 1-7 7H162l-20.456-6.303-8.465 6.303H54.455a7 7 0 0 1-7-7z" data-original="#abdc94"></path><path fill="#8ccf75" d="M133.079 425.19h28.92l-77.575-65.395a7 7 0 0 0-9.921.91l-7.964 9.698zM140.734 344.395l-7.654 9.491 40.567 33.928v-25.719l-23.048-18.737a7 7 0 0 0-9.865 1.037z" data-original="#8ccf75"></path><g fill="#b9def9"><path d="M299.838 213.924H47.455c-4.207 0-7.617 3.41-7.617 7.617s3.41 7.617 7.617 7.617h252.383a7.617 7.617 0 1 0 0-15.234zM299.838 245.471H47.455c-4.207 0-7.617 3.41-7.617 7.617s3.41 7.617 7.617 7.617h252.383a7.617 7.617 0 1 0 0-15.234zM299.838 322.929h-94.644c-4.207 0-7.617 3.41-7.617 7.617s3.41 7.617 7.617 7.617h94.644a7.617 7.617 0 1 0 0-15.234zM307.455 362.095a7.617 7.617 0 0 0-7.617-7.617h-94.644c-4.207 0-7.617 3.41-7.617 7.617s3.41 7.617 7.617 7.617h94.644a7.618 7.618 0 0 0 7.617-7.617zM205.194 386.025c-4.207 0-7.617 3.41-7.617 7.617s3.41 7.617 7.617 7.617h59.155c4.207 0 7.617-3.41 7.617-7.617s-3.41-7.617-7.617-7.617z" fill="#b9def9" data-original="#b9def9" class=""></path></g></g></svg>