<svg xmlns="http://www.w3.org/2000/svg" version="1.1" xmlns:xlink="http://www.w3.org/1999/xlink" xmlns:svgjs="http://svgjs.com/svgjs" width="512" height="512" x="0" y="0" viewBox="0 0 110 110" style="enable-background:new 0 0 512 512" xml:space="preserve" class=""><g><circle cx="55" cy="55" fill="#e7efff" r="50" data-original="#e7efff" class=""></circle><circle cx="8" cy="4" fill="#ff4d69" r="3" data-original="#ff4d69"></circle><circle cx="106" cy="19" fill="#00c99f" r="3" data-original="#00c99f"></circle><circle cx="103" cy="106" fill="#ffa100" r="3" data-original="#ffa100"></circle><circle cx="4" cy="99" fill="#00c99f" r="3" data-original="#00c99f"></circle><path d="m20 15h70a4 4 0 0 1 4 4v6a0 0 0 0 1 0 0h-78a0 0 0 0 1 0 0v-6a4 4 0 0 1 4-4z" fill="#323fd4" data-original="#323fd4" class=""></path><path d="m32 21h61a4 4 0 0 1 4 4v6a0 0 0 0 1 0 0h-65a0 0 0 0 1 0 0v-10a0 0 0 0 1 0 0z" fill="#4e6aff" data-original="#4e6aff" class=""></path><path d="m17 21h15a6 6 0 0 1 6 6v4a0 0 0 0 1 0 0h-25a0 0 0 0 1 0 0v-6a4 4 0 0 1 4-4z" fill="#8fa2ff" data-original="#8fa2ff"></path><path d="m97 31v51.12a50.05 50.05 0 0 1 -18.25 16.88h-47.5a50.05 50.05 0 0 1 -18.25-16.88v-51.12z" fill="#a5bced" data-original="#a5bced" class=""></path><g fill="#fff"><circle cx="92" cy="26" r="1" fill="#ffffff" data-original="#ffffff" class=""></circle><circle cx="86" cy="26" r="1" fill="#ffffff" data-original="#ffffff" class=""></circle><circle cx="80" cy="26" r="1" fill="#ffffff" data-original="#ffffff" class=""></circle><circle cx="33" cy="26" r="1" fill="#ffffff" data-original="#ffffff" class=""></circle></g><path d="m63 64v-6a2 2 0 0 0 -2-2h-1.28a2 2 0 0 1 -1.86-1.29c-.15-.41-.32-.8-.49-1.19a2 2 0 0 1 .41-2.22l.9-.91a2 2 0 0 0 0-2.83l-4.24-4.24a2 2 0 0 0 -2.83 0l-.91.9a2 2 0 0 1 -2.22.41c-.39-.17-.78-.34-1.19-.49a2 2 0 0 1 -1.29-1.86v-1.28a2 2 0 0 0 -2-2h-6a2 2 0 0 0 -2 2v1.28a2 2 0 0 1 -1.29 1.86c-.41.15-.8.32-1.19.49a2 2 0 0 1 -2.22-.41l-.91-.9a2 2 0 0 0 -2.83 0l-4.24 4.24a2 2 0 0 0 0 2.83l.9.91a2 2 0 0 1 .41 2.22c-.17.39-.34.78-.49 1.19a2 2 0 0 1 -1.86 1.29h-1.28a2 2 0 0 0 -2 2v6a2 2 0 0 0 2 2h1.28a2 2 0 0 1 1.86 1.29c.15.41.32.8.49 1.19a2 2 0 0 1 -.41 2.22l-.9.91a2 2 0 0 0 0 2.83l4.24 4.24a2 2 0 0 0 2.83 0l.91-.9a2 2 0 0 1 2.22-.41c.39.17.78.34 1.19.49a2 2 0 0 1 1.29 1.86v1.28a2 2 0 0 0 2 2h6a2 2 0 0 0 2-2v-1.28a2 2 0 0 1 1.29-1.86c.41-.15.8-.32 1.19-.49a2 2 0 0 1 2.22.41l.91.9a2 2 0 0 0 2.83 0l4.24-4.24a2 2 0 0 0 0-2.83l-.9-.91a2 2 0 0 1 -.41-2.22c.17-.39.34-.78.49-1.19a2 2 0 0 1 1.86-1.29h1.28a2 2 0 0 0 2-2z" fill="#4e6aff" data-original="#4e6aff" class=""></path><circle cx="41" cy="61" fill="#ffffff" r="13" data-original="#ffffff" class=""></circle><path d="m45 69.05v4.32a13 13 0 0 1 -8 0v-4.32a9 9 0 0 1 0-16.05v6.81a2 2 0 0 0 1.11 1.79l2 1a2 2 0 0 0 1.78 0l2-1a2 2 0 0 0 1.11-1.84v-6.76a9 9 0 0 1 0 16.05z" fill="#8fa2ff" data-original="#8fa2ff"></path><path d="m73 45c-.54 0-.57-.15-2.71-2.29a1 1 0 0 1 1.42-1.42l1.29 1.3 2.29-2.3a1 1 0 0 1 1.42 1.42l-3 3a1 1 0 0 1 -.71.29z" fill="#4e6aff" data-original="#4e6aff" class=""></path><path d="m90 44h-9a1 1 0 0 1 0-2h9a1 1 0 0 1 0 2z" fill="#ffffff" data-original="#ffffff" class=""></path><path d="m73 54c-.54 0-.57-.15-2.71-2.29a1 1 0 0 1 1.42-1.42l1.29 1.3 2.29-2.3a1 1 0 0 1 1.42 1.42l-3 3a1 1 0 0 1 -.71.29z" fill="#4e6aff" data-original="#4e6aff" class=""></path><path d="m90 53h-9a1 1 0 0 1 0-2h9a1 1 0 0 1 0 2z" fill="#ffffff" data-original="#ffffff" class=""></path><path d="m73 63c-.54 0-.57-.15-2.71-2.29a1 1 0 0 1 1.42-1.42l1.29 1.3 2.29-2.3a1 1 0 0 1 1.42 1.42l-3 3a1 1 0 0 1 -.71.29z" fill="#4e6aff" data-original="#4e6aff" class=""></path><path d="m90 62h-9a1 1 0 0 1 0-2h9a1 1 0 0 1 0 2z" fill="#ffffff" data-original="#ffffff" class=""></path><path d="m73 72c-.54 0-.57-.15-2.71-2.29a1 1 0 0 1 1.42-1.42l1.29 1.3 2.29-2.3a1 1 0 0 1 1.42 1.42l-3 3a1 1 0 0 1 -.71.29z" fill="#4e6aff" data-original="#4e6aff" class=""></path><path d="m90 71h-9a1 1 0 0 1 0-2h9a1 1 0 0 1 0 2z" fill="#ffffff" data-original="#ffffff" class=""></path><path d="m90 80h-9a1 1 0 0 1 0-2h9a1 1 0 0 1 0 2z" fill="#ffffff" data-original="#ffffff" class=""></path><path d="m70 79c0-3 4-3.92 4-2a1 1 0 0 1 -1 1 1 1 0 1 0 .5 1.87 1 1 0 0 1 1.37.36 1 1 0 0 1 -.37 1.37 3 3 0 0 1 -4.5-2.6z" fill="#7f96d1" data-original="#7f96d1"></path></g></svg>