<svg xmlns="http://www.w3.org/2000/svg" version="1.1" xmlns:xlink="http://www.w3.org/1999/xlink"
    xmlns:svgjs="http://svgjs.com/svgjs" width="512" height="512" x="0" y="0" viewBox="0 0 512 512"
    style="enable-background:new 0 0 512 512" xml:space="preserve" class="">
    <g>
        <g>
            <path d="m240.433 348.484h31.134v80.942h-31.134z" fill="#dfebfa" data-original="#dfebfa" class=""></path>
            <path d="m240.433 348.484h17.715v80.942h-17.715z" fill="#bed8fb" data-original="#bed8fb" class=""></path>
            <path
                d="m94.721 470.487c-8.382 0-15.595 6.442-15.989 14.814-.421 8.94 6.702 16.32 15.549 16.32h106.113v-31.134z"
                fill="#dfebfa" data-original="#dfebfa" class=""></path>
            <path
                d="m417.279 470.487h-106.684v31.134h107.124c8.847 0 15.971-7.38 15.549-16.32-.394-8.372-7.607-14.814-15.989-14.814z"
                fill="#dfebfa" data-original="#dfebfa" class=""></path>
            <path
                d="m81.242 477.69c-1.46 2.208-2.378 4.796-2.51 7.612-.421 8.94 6.703 16.32 15.55 16.32h106.113v-16.857h-106.114c-5.462 0-10.261-2.818-13.039-7.075z"
                fill="#bed8fb" data-original="#bed8fb" class=""></path>
            <path
                d="m417.719 484.765h-107.124v16.857h107.124c8.847 0 15.971-7.38 15.55-16.32-.133-2.816-1.05-5.404-2.51-7.612-2.779 4.257-7.578 7.075-13.04 7.075z"
                fill="#bed8fb" data-original="#bed8fb" class=""></path>
            <path
                d="m304.258 460.109h-18.711c-1.989 0-3.602-1.613-3.602-3.602v-19.734c0-5.732-4.646-10.378-10.378-10.378h-31.134c-5.732 0-10.378 4.646-10.378 10.378v19.734c0 1.989-1.612 3.602-3.602 3.602h-18.711c-5.732 0-10.378 4.646-10.378 10.378v31.134c0 5.732 4.646 10.378 10.378 10.378h96.517c5.732 0 10.378-4.646 10.378-10.378v-31.134c0-5.731-4.647-10.378-10.379-10.378z"
                fill="#9dc6fb" data-original="#9dc6fb" class=""></path>
            <path
                d="m226.665 501.622v-31.134c0-5.732 4.646-10.378 10.378-10.378h18.711c1.989 0 3.602-1.613 3.602-3.602v-19.734c0-5.732 4.646-10.378 10.378-10.378h-29.302c-5.732 0-10.378 4.646-10.378 10.378v19.734c0 1.989-1.612 3.602-3.602 3.602h-18.711c-5.732 0-10.378 4.646-10.378 10.378v31.134c0 5.732 4.646 10.378 10.378 10.378h29.302c-5.732 0-10.378-4.646-10.378-10.378z"
                fill="#80b4fb" data-original="#80b4fb"></path>
            <g>
                <path
                    d="m256 31.031-145.488 132.949v170.873c0 11.296 9.157 20.453 20.453 20.453h250.07c11.296 0 20.453-9.157 20.453-20.453v-170.873z"
                    fill="#dfebfa" data-original="#dfebfa" class=""></path>
            </g>
            <path
                d="m148.8 187.54c0-7.572 3.184-14.794 8.773-19.902l123.959-113.275-25.532-23.332-145.488 132.949v170.873c0 11.296 9.157 20.454 20.453 20.454h17.835z"
                fill="#bed8fb" data-original="#bed8fb" class=""></path>
            <path d="m147.563 208.607h84.229v146.699h-84.229z" fill="#ffe181" data-original="#ffe181"></path>
            <path d="m147.563 208.607h33.481v146.699h-33.481z" fill="#fec458" data-original="#fec458"></path>
            <path
                d="m356.175 180.353h-77.603c-4.563 0-8.262 3.699-8.262 8.262v85.342c0 4.563 3.699 8.262 8.262 8.262h77.603c4.563 0 8.262-3.699 8.262-8.262v-85.342c0-4.563-3.699-8.262-8.262-8.262z"
                fill="#9dc6fb" data-original="#9dc6fb" class=""></path>
            <path
                d="m300.185 273.957v-85.342c0-4.563 3.699-8.262 8.262-8.262h-29.875c-4.563 0-8.262 3.699-8.262 8.262v85.342c0 4.563 3.699 8.262 8.262 8.262h29.875c-4.563 0-8.262-3.699-8.262-8.262z"
                fill="#80b4fb" data-original="#80b4fb"></path>
            <path
                d="m356.175 172.627h-77.603c-8.816 0-15.988 7.172-15.988 15.988v85.341c0 8.816 7.172 15.989 15.988 15.989h77.603c8.816 0 15.988-7.172 15.988-15.988v-85.342c0-8.816-7.172-15.988-15.988-15.988zm.536 15.988v34.944h-31.611v-35.48h31.075c.296.001.536.241.536.536zm-78.139-.535h31.075v35.48h-31.611v-34.944c.001-.296.241-.536.536-.536zm-.535 85.877v-34.944h31.611v35.481h-31.075c-.296-.001-.536-.242-.536-.537zm78.138.536h-31.075v-35.481h31.61v34.945c.001.295-.239.536-.535.536z"
                fill="#bed8fb" data-original="#bed8fb" class=""></path>
            <path
                d="m443.861 160.393-166.307-151.972c-12.287-11.227-30.82-11.229-43.109 0l-166.306 151.972c-6.832 6.243-7.309 16.841-1.066 23.673 6.243 6.833 16.842 7.31 23.673 1.067l161.797-147.853c1.957-1.789 4.956-1.789 6.913 0l161.798 147.852c6.835 6.245 17.433 5.762 23.673-1.067 6.244-6.831 5.766-17.429-1.066-23.672z"
                fill="#ff656f" data-original="#ff656f" class=""></path>
            <g>
                <path
                    d="m254.589 36.158 9.216-8.422c7.334-6.702 16.893-9.4 26.021-8.102l-12.272-11.213c-12.287-11.227-30.82-11.229-43.109 0l-166.306 151.972c-6.832 6.243-7.309 16.841-1.066 23.673 6.243 6.833 16.842 7.31 23.673 1.067l161.797-147.853c.602-.55 1.308-.91 2.046-1.122z"
                    fill="#ff4756" data-original="#ff4756" class=""></path>
            </g>
            <path
                d="m222.718 180.353h-66.082c-5.011 0-9.074 4.062-9.074 9.074v21.24h84.229v-21.24c.001-5.011-4.061-9.074-9.073-9.074z"
                fill="#fec458" data-original="#fec458"></path>
            <path
                d="m190.117 180.353h-33.481c-5.011 0-9.073 4.062-9.073 9.074v21.24h33.481v-21.24c0-5.011 4.062-9.074 9.073-9.074z"
                fill="#f9ab49" data-original="#f9ab49" class=""></path>
        </g>
    </g>
</svg>