<svg xmlns="http://www.w3.org/2000/svg" version="1.1" xmlns:xlink="http://www.w3.org/1999/xlink" xmlns:svgjs="http://svgjs.com/svgjs" width="512" height="512" x="0" y="0" viewBox="0 0 512 512" style="enable-background:new 0 0 512 512" xml:space="preserve" class=""><g><g><g><path d="m197.709 176.466c0-74.865-17.029-142.962 49.365-176.295-65.032 2.214-125.852 28.568-172.094 74.809-48.351 48.353-74.98 112.64-74.98 181.02s26.629 132.667 74.98 181.02c48.353 48.351 112.64 74.98 181.02 74.98l30.122-70.617-30.122-126.386c-44.409-19.805-58.291-63.427-58.291-138.531z" fill="#ebf3fe" data-original="#ebf3fe" class=""></path><path d="m335.534 327.965c-33.637 0-59.644-4.097-79.534-12.968v197.003c68.38 0 132.667-26.629 181.02-74.98 46.242-46.243 72.597-107.063 74.81-172.096-33.334 66.39-101.444 63.041-176.296 63.041z" fill="#d0e4fc" data-original="#d0e4fc" class=""></path></g><g fill="#445373"><path d="m256 130.394-115.831 19.178c-1.214 8.833-1.842 17.813-1.842 26.895 0 16.482 2.044 32.493 5.872 47.806l111.801 24.465 30.122-61.816z" fill="#445373" data-original="#445373" class=""></path><path d="m256 0c-2.985 0-5.958.069-8.926.17-33.963 17.052-61.631 43.203-80.561 74.7l89.487 19.905 23.87-57.339z" fill="#445373" data-original="#445373" class=""></path></g><path d="m181.109 298.972c19.789 24.892 45.465 44.896 74.891 57.921l30.122-28.96-30.122-48.193z" fill="#445373" data-original="#445373" class=""></path><g fill="#363c5a"><path d="m256 356.893c24.341 10.774 51.246 16.78 79.534 16.78 61.097 0 117.698-28.225 154.566-74.7l-234.1-19.233z" fill="#363c5a" data-original="#363c5a" class=""></path><path d="m256 248.738 254.066-24.466c-3.199-26.04-10.343-51.168-21.108-74.701l-232.958-19.177z" fill="#363c5a" data-original="#363c5a" class=""></path><path d="m436.907 74.871c-48.339-48.281-112.579-74.871-180.907-74.871v94.775z" fill="#363c5a" data-original="#363c5a" class=""></path><path d="m256 74.871h-89.487c-13.587 22.607-22.67 47.968-26.343 74.7h115.83l32.919-39.797z" fill="#363c5a" data-original="#363c5a" class=""></path><path d="m256 224.272h-111.801c6.914 27.662 19.681 53.028 36.91 74.7h74.891l30.122-37.35z" fill="#363c5a" data-original="#363c5a" class=""></path></g><path d="m510.066 224.272h-254.066v74.7h234.1c8.3-10.463 15.604-21.848 21.73-34.049.101-2.967.17-5.94.17-8.924 0-10.69-.651-21.281-1.934-31.727z" fill="#1a2647" data-original="#1a2647" class=""></path><path d="m256 149.571h232.957c-12.537-27.406-29.991-52.644-51.938-74.591-.037-.037-.075-.073-.112-.11h-180.907z" fill="#1a2647" data-original="#1a2647" class=""></path></g></g></svg>