<svg xmlns="http://www.w3.org/2000/svg" version="1.1" xmlns:xlink="http://www.w3.org/1999/xlink" xmlns:svgjs="http://svgjs.com/svgjs" width="512" height="512" x="0" y="0" viewBox="0 0 512 512" style="enable-background:new 0 0 512 512" xml:space="preserve" class=""><g><g><path d="m512 256c0 141.385-114.615 256-256 256s-256-114.615-256-256 114.615-256 256-256 256 114.615 256 256z" fill="#2dd2e3" data-original="#2dd2e3" class=""></path><path d="m266 30v481.808c-3.318.127-6.651.192-10 .192s-6.682-.064-10-.192v-481.808c0-5.523 4.477-10 10-10s10 4.477 10 10zm144 452v-132c0-5.523-4.477-10-10-10-5.523 0-10 4.477-10 10v132c0 5.523 4.477 10 10 10 5.523 0 10-4.477 10-10z" fill="#009ab2" data-original="#009ab2"></path><path d="m332 430v20c0 5.523-4.477 10-10 10h-132c-5.523 0-10-4.477-10-10v-20c0-5.523 4.477-10 10-10h132c5.523 0 10 4.477 10 10zm88 62c0-11.046-8.954-20-20-20-11.046 0-20 8.954-20 20 0 11.046 8.954 20 20 20 11.046 0 20-8.954 20-20z" fill="#005aaf" data-original="#005aaf" class=""></path><path d="m125.766 98.318v313.365c0 15.639-12.678 28.318-28.317 28.318h-41.449c-5.523 0-10-4.477-10-10v-360.001h51.448c15.64 0 28.318 12.678 28.318 28.318z" fill="#afeaf2" data-original="#afeaf2"></path><path d="m466 80v350c0 5.523-4.477 10-10 10h-366c-5.523 0-10-4.477-10-10v-350c0-5.523 4.477-10 10-10h366c5.523 0 10 4.477 10 10z" fill="#d5f3f7" data-original="#d5f3f7" class=""></path><path d="m482 60c0 11.046-8.954 20-20 20h-412c-11.046 0-20-8.954-20-20 0-11.046 8.954-20 20-20h412c11.046 0 20 8.954 20 20z" fill="#005aaf" data-original="#005aaf" class=""></path><path d="m70 60c0 11.046-8.954 20-20 20s-20-8.954-20-20c0-11.046 8.954-20 20-20s20 8.954 20 20z" fill="#003c79" data-original="#003c79"></path><path d="m235 250h-160c-2.761 0-5-2.239-5-5v-130c0-2.761 2.239-5 5-5h160c2.761 0 5 2.239 5 5v130c0 2.761-2.239 5-5 5z" fill="#4bcd5c" data-original="#4bcd5c"></path><path d="m110 250h-35c-2.761 0-5-2.239-5-5v-130c0-2.761 2.239-5 5-5h35c-2.761 0-5 2.239-5 5v130c0 2.761 2.239 5 5 5z" fill="#00c53b" data-original="#00c53b"></path><path d="m160 105v20c0 2.761-2.239 5-5 5h-10c-2.761 0-5-2.239-5-5v-20c0-2.761 2.239-5 5-5h10c2.761 0 5 2.239 5 5z" fill="#00b327" data-original="#00b327"></path><path d="m425 290h-160c-2.761 0-5-2.239-5-5v-170c0-2.761 2.239-5 5-5h160c2.761 0 5 2.239 5 5v170c0 2.761-2.239 5-5 5zm-275 85v-90c0-2.761-2.239-5-5-5h-70c-2.761 0-5 2.239-5 5v90c0 2.761 2.239 5 5 5h70c2.761 0 5-2.239 5-5z" fill="#fff5f5" data-original="#fff5f5" class=""></path><path d="m210 185c0 4.142-3.358 7.5-7.5 7.5h-93c-4.142 0-7.5-3.358-7.5-7.5s3.358-7.5 7.5-7.5h93c4.142 0 7.5 3.358 7.5 7.5zm-27.5 20h-53c-4.142 0-7.5 3.358-7.5 7.5s3.358 7.5 7.5 7.5h53c4.142 0 7.5-3.358 7.5-7.5s-3.358-7.5-7.5-7.5zm-73-40h93c4.142 0 7.5-3.358 7.5-7.5s-3.358-7.5-7.5-7.5h-93c-4.142 0-7.5 3.358-7.5 7.5s3.358 7.5 7.5 7.5z" fill="#91de93" data-original="#91de93"></path><path d="m110.5 363.75h-21c-4.142 0-7.5-3.358-7.5-7.5s3.358-7.5 7.5-7.5h21c4.142 0 7.5 3.358 7.5 7.5s-3.358 7.5-7.5 7.5zm22.5-35c0-4.142-3.358-7.5-7.5-7.5h-36c-4.142 0-7.5 3.358-7.5 7.5s3.358 7.5 7.5 7.5h36c4.142 0 7.5-3.358 7.5-7.5zm168-203.75v-20c0-2.761-2.239-5-5-5h-10c-2.761 0-5 2.239-5 5v20c0 2.761 2.239 5 5 5h10c2.761 0 5-2.239 5-5zm50 5h-10c-2.761 0-5-2.239-5-5v-20c0-2.761 2.239-5 5-5h10c2.761 0 5 2.239 5 5v20c0 2.761-2.239 5-5 5zm55 0h-10c-2.761 0-5-2.239-5-5v-20c0-2.761 2.239-5 5-5h10c2.761 0 5 2.239 5 5v20c0 2.761-2.239 5-5 5zm-316 170h-5c-2.761 0-5-2.239-5-5v-20c0-2.761 2.239-5 5-5h5c2.761 0 5 2.239 5 5v20c0 2.761-2.239 5-5 5zm320.867-96.25-29.686-51.417c-1.34-2.32-3.815-3.75-6.495-3.75h-59.372c-2.68 0-5.155 1.43-6.495 3.75l-29.686 51.417c-1.34 2.32-1.34 5.18 0 7.5l29.686 51.417c1.34 2.32 3.815 3.75 6.495 3.75h59.372c2.68 0 5.155-1.43 6.495-3.75l29.686-51.417c1.34-2.32 1.34-5.18 0-7.5zm-36.181 40.168-16.696-28.918h33.392zm-76.067-28.918h33.391l-16.695 28.917zm16.695-43.917 16.695 28.917h-33.391zm12.99-7.5h33.391l-16.695 28.917zm16.696 58.917 16.696 28.918h-33.391zm12.99-22.5 16.696-28.918 16.695 28.918z" fill="#b3cbed" data-original="#b3cbed"></path><path d="m364.114 207.5c0 10.556-8.558 19.114-19.114 19.114s-19.114-8.558-19.114-19.114 8.558-19.114 19.114-19.114 19.114 8.558 19.114 19.114zm-46.109-62.767c-8.284 0-15 6.716-15 15s6.716 15 15 15 15-6.716 15-15-6.716-15-15-15zm68.99 15c0 8.284-6.716 15-15 15s-15-6.716-15-15 6.716-15 15-15 15 6.715 15 15zm-68.99 81.267c-8.284 0-15 6.716-15 15s6.716 15 15 15 15-6.716 15-15-6.716-15-15-15zm68.99 15c0 8.284-6.716 15-15 15s-15-6.716-15-15 6.716-15 15-15 15 6.716 15 15zm-96.995-63.5c-8.284 0-15 6.716-15 15s6.716 15 15 15 15-6.716 15-15-6.716-15-15-15zm125 15c0 8.284-6.716 15-15 15s-15-6.716-15-15 6.716-15 15-15 15 6.716 15 15z" fill="#83afe4" data-original="#83afe4"></path><path d="m340 285v90c0 2.761-2.239 5-5 5h-160c-2.761 0-5-2.239-5-5v-90c0-2.761 2.239-5 5-5h160c2.761 0 5 2.239 5 5z" fill="#ffc143" data-original="#ffc143"></path><path d="m201 380h-26c-2.761 0-5-2.239-5-5v-90c0-2.761 2.239-5 5-5h26c-2.761 0-5 2.239-5 5v90c0 2.761 2.239 5 5 5z" fill="#ffb509" data-original="#ffb509" class=""></path><path d="m326.202 317.5c0 4.142-3.357 7.5-7.5 7.5h-127.83c-4.143 0-7.5-3.358-7.5-7.5s3.357-7.5 7.5-7.5h127.83c4.143 0 7.5 3.358 7.5 7.5z" fill="#ffd98f" data-original="#ffd98f" class=""></path><path d="m209.749 284.393c1.953 1.953 1.953 5.118 0 7.071l-7.071 7.071c-1.953 1.953-5.119 1.953-7.071 0l-14.142-14.142c-1.953-1.953-1.953-5.118 0-7.071l7.071-7.071c1.953-1.953 5.119-1.953 7.071 0zm114.393 95.607-14.142-14.142c-1.953-1.953-5.118-1.953-7.071 0l-7.071 7.071c-1.953 1.953-1.953 5.118 0 7.071l14.142 14.142c1.953 1.953 5.118 1.953 7.071 0l7.071-7.071c1.953-1.953 1.953-5.118 0-7.071zm2.06-31.25c0-4.142-3.357-7.5-7.5-7.5h-11.489c-3.875 0-7.476-2.091-9.396-5.457l-13.031-22.843c-4.584-8.034-13.176-13.025-22.425-13.025h-6.525c-8.681 0-16.726 4.32-21.521 11.557l-16.517 24.926c-2.009 3.032-5.38 4.842-9.017 4.842h-15.355c-4.143 0-7.5 3.358-7.5 7.5s3.357 7.5 7.5 7.5h15.355c8.681 0 16.726-4.32 21.521-11.557l16.517-24.925c2.01-3.032 5.381-4.843 9.018-4.843h6.525c3.875 0 7.476 2.091 9.396 5.458l13.031 22.843c4.584 8.033 13.177 13.024 22.425 13.024h11.489c4.142 0 7.499-3.358 7.499-7.5z" fill="#ff9500" data-original="#ff9500" class=""></path><path d="m440 315v60c0 2.761-2.239 5-5 5h-60c-2.761 0-5-2.239-5-5v-60c0-2.761 2.239-5 5-5h60c2.761 0 5 2.239 5 5z" fill="#ff5757" data-original="#ff5757" class=""></path><path d="m395 380h-20c-2.761 0-5-2.239-5-5v-60c0-2.761 2.239-5 5-5h20c-2.761 0-5 2.239-5 5v60c0 2.761 2.239 5 5 5z" fill="#ff4343" data-original="#ff4343" class=""></path><path d="m430 305v20c0 2.761-2.239 5-5 5h-5c-2.761 0-5-2.239-5-5v-20c0-2.761 2.239-5 5-5h5c2.761 0 5 2.239 5 5z" fill="#f72c2c" data-original="#f72c2c" class=""></path><path d="m384.468 332.5c0-3.313 2.687-6 6-6h12.255c3.313 0 6 2.687 6 6s-2.687 6-6 6h-12.255c-3.313 0-6-2.687-6-6zm35.064 19h-29.063c-3.313 0-6 2.687-6 6s2.687 6 6 6h29.063c3.313 0 6-2.687 6-6s-2.687-6-6-6z" fill="#ffbcbc" data-original="#ffbcbc" class=""></path></g></g></svg>