<svg xmlns="http://www.w3.org/2000/svg" version="1.1" xmlns:xlink="http://www.w3.org/1999/xlink" x="0" y="0" viewBox="0 0 100 100" style="enable-background:new 0 0 512 512" xml:space="preserve"
    class="">
    <g>
        <path fill="#ff7465"
            d="M86.429 44.544c-3.097-2.41-7.24-3.404-10.622-1.044l-1.013.886c-1.451-1.549-4.059-1.98-5.854-3.04-1.882-1.112-3.927-1.761-5.943-2.499-1.544-.565-3.148-1.195-4.777-1.421-1.508-.208-5.839-.379-5.839-.379.14-1.232.674-3.698.908-4.812.301-1.426.492-2.82.852-4.2.753-2.887 1.19-5.874 2.07-8.685 2.164.329 4.178.494 6.31.864 1.711.298 4.623.506 5.945 1.648l.507 2.024c.475 2.05 2.584 3.609 4.929 3.796 4.783.381 8.627-4.913 6.429-9.357-1.984-4.008-7.801-4.639-10.218-1.398L69.1 18.318c-2.518-1.057-4.845-.975-7.466-1.518-1.938-.402-3.855-1.441-5.82-1.519-2.973-.117-2.62 1.727-3.322 4.036-.816 2.687-.932 5.312-1.486 7.991-.378 1.827-.86 4.452-1.646 6.446l-.78 3.166c-3.504-.244-7.599.501-10.989 1.167-3.461.681-7.41 2.171-9.742 4.907l-1.646 1.519c-1.708-1.068-3.113-1.859-5.063-2.373-4.981-1.314-7.738 1.96-9.771 6.014-.934 1.86-.614 4.16.402 6.005.567 1.026 3.084 3.872 3.804 4.273 0 .722.354 3.314.526 4.04.538 2.267.938 4.568 1.921 6.698 1.197 2.597 2.944 4.881 5.062 6.794 4.622 4.178 10.757 7.017 16.814 8.335 3.935.856 8.345.901 12.354.816 2.664-.057 5.432-.167 8.033-.811.764-.188 1.51-.449 2.236-.755l1.265-.443c1.772-.885 3.938-1.516 5.729-2.505 1.728-.956 3.627-1.771 5.287-2.811 1.976-1.236 3.916-3.614 5.422-5.357 3.328-3.855 4.248-9.212 4.188-14.002l1.392-1.012c.007.135 1.343-1.226 1.741-1.775 2.473-3.417 2.196-8.521-1.116-11.1zM31.192 59.218c-.531-1.179-.781-2.981-.284-4.149 1.135-2.664 3.419-4.545 6.43-4.293 1.652.14 2.917 1.041 4.102 2.165 1.226 1.161 1.268 2.705 1.214 4.384-.182 5.728-9.203 6.933-11.462 1.893zm33.537 13.064c-.413 1.744-3.298 2.394-4.682 2.963-2.514 1.034-4.678 1.779-8.108 1.661-2.456-.083-4.962.25-7.395-.151-1.62-.269-3.103-.622-4.638-1.257-1.238-.512-2.593-1.606-3.707-2.515-.885-.72-1.354-2.319.125-2.596 1.153-.216 1.688.438 2.421 1.123 1.406 1.32 3.648 1.991 5.488 2.295 2.304.383 4.653.472 7.023.569 1.368.057 2.587-.146 3.922-.44 1.268-.28 2.658-.635 4.112-1.19.827-.315 1.588-.714 2.273-1.278.633-.52 1.324-1.493 2.256-1.069.689.312 1.081 1.161.91 1.885zm4.389-13.283c-.423 1.634-1.752 2.42-3.248 3.187-5.099 2.617-10.523-4.687-7.212-9.108.774-1.033 2.23-2.126 3.492-2.258 2.88-.3 5.633.787 6.871 3.544.681 1.511.505 3.054.097 4.635z"
            opacity="1" data-original="#ff7465" class=""></path>
    </g>
</svg>