<svg xmlns="http://www.w3.org/2000/svg" version="1.1" xmlns:xlink="http://www.w3.org/1999/xlink" x="0" y="0" viewBox="0 0 512 512" style="enable-background:new 0 0 512 512" xml:space="preserve"
    class="">
    <g>
        <path
            d="M286.187 268.435 112.968 441.677c-6.875 6.876-18.021 6.876-24.897.001L45.214 398.82c-6.874-6.874-6.875-18.02-.001-24.894l117.914-117.939-69.122-69.122-48.79-48.79c-6.875-6.875-6.875-18.021 0-24.896l42.857-42.857c6.875-6.875 18.021-6.875 24.896 0l116.543 116.543 56.675 56.675c6.874 6.874 6.875 18.02.001 24.895z"
            style="" fill="#00d8de" data-original="#00d8de" class=""></path>
        <path
            d="M230.853 188.261 163.1 256.014l-25.897-25.897-43.197-43.252-48.79-48.79c-6.875-6.875-6.875-18.021 0-24.896L88.07 70.325c6.876-6.876 18.025-6.875 24.899.003l91.987 92.035 25.897 25.898z"
            style="" fill="#00a5ff" data-original="#00a5ff"></path>
        <path d="M230.853 188.261 163.1 256.014l-16.43-16.457 67.752-67.753z" style="" fill="#0087ff"
            data-original="#0087ff"></path>
        <path
            d="M466.786 268.435 293.568 441.677c-6.875 6.876-18.022 6.876-24.897.001l-42.858-42.858c-6.874-6.874-6.875-18.02-.001-24.894l117.914-117.939-69.122-69.122-48.79-48.79c-6.875-6.875-6.875-18.021 0-24.896l42.857-42.857c6.875-6.875 18.021-6.875 24.896 0L410.11 186.865l56.675 56.675c6.875 6.874 6.875 18.02.001 24.895z"
            style="" fill="#00a5ff" data-original="#00a5ff"></path>
        <path
            d="m411.452 188.261-67.753 67.753-25.897-25.897-43.197-43.252-48.79-48.79c-6.875-6.875-6.875-18.021 0-24.896l42.854-42.854c6.876-6.876 18.025-6.875 24.899.003l91.987 92.035 25.897 25.898z"
            style="" fill="#00d8de" data-original="#00d8de" class=""></path>
        <path
            d="m411.452 188.261-67.753 67.753-16.43-16.457 67.753-67.753zM494.01 488.583a7.5 7.5 0 0 0-7.5 7.5v8.417c0 4.142 3.357 7.5 7.5 7.5s7.5-3.358 7.5-7.5v-8.417a7.5 7.5 0 0 0-7.5-7.5zM449.738 488.583a7.5 7.5 0 0 0-7.5 7.5v8.417c0 4.142 3.357 7.5 7.5 7.5s7.5-3.358 7.5-7.5v-8.417a7.5 7.5 0 0 0-7.5-7.5zM405.466 488.583a7.5 7.5 0 0 0-7.5 7.5v8.417c0 4.142 3.357 7.5 7.5 7.5s7.5-3.358 7.5-7.5v-8.417a7.5 7.5 0 0 0-7.5-7.5z"
            style="" fill="#05c1c1" data-original="#05c1c1"></path>
        <path
            d="M106.534 23.417a7.5 7.5 0 0 0 7.5-7.5V7.5a7.5 7.5 0 0 0-15 0v8.417a7.5 7.5 0 0 0 7.5 7.5zM62.262 23.417a7.5 7.5 0 0 0 7.5-7.5V7.5a7.5 7.5 0 0 0-15 0v8.417a7.5 7.5 0 0 0 7.5 7.5zM17.99 0a7.5 7.5 0 0 0-7.5 7.5v8.417a7.5 7.5 0 0 0 15 0V7.5a7.5 7.5 0 0 0-7.5-7.5z"
            style="" fill="#0087ff" data-original="#0087ff"></path>
    </g>
</svg>