<svg xmlns="http://www.w3.org/2000/svg" version="1.1" xmlns:xlink="http://www.w3.org/1999/xlink" xmlns:svgjs="http://svgjs.com/svgjs" width="512" height="512" x="0" y="0" viewBox="0 0 64 64" style="enable-background:new 0 0 512 512" xml:space="preserve" class=""><g><g id="Space_Rocket" data-name="Space Rocket"><path d="m54.64 50.39-4.25 4.25-1.86-.38-1.67-.33 7.07-7.07.33 1.67z" fill="#bcbec0" data-original="#bcbec0" class=""></path><path d="m59.59 55.34c1.17 1.17 2.58 4.49 1.41 5.66s-4.49-.24-5.66-1.41a3.005 3.005 0 0 1 4.25-4.25z" fill="#ff5023" data-original="#ff5023"></path><path d="m56.86 42.02a1.006 1.006 0 0 1 .29 1.62l-3.22 3.22-5.66-5.66.16-.16a4.007 4.007 0 0 1 4.49-.81z" fill="#bcbec0" data-original="#bcbec0" class=""></path><path d="m46.86 53.93-3.22 3.22a1.006 1.006 0 0 1 -1.62-.29l-1.79-3.94a4.007 4.007 0 0 1 .81-4.49l.16-.16z" fill="#bcbec0" data-original="#bcbec0" class=""></path><path d="m53.93 46.86-7.07 7.07-5.66-5.66-3.4-3.4a3.919 3.919 0 0 1 -1.1-2.07c-.33-1.75-.74-4.85.26-5.84s4.09-.59 5.84-.26a3.919 3.919 0 0 1 2.07 1.1z" fill="#d1d3d4" data-original="#d1d3d4" class=""></path><path d="m54.26 48.53-5.73 5.73-1.67-.33 7.07-7.07z" fill="#a7a9ac" data-original="#a7a9ac"></path><path d="m42.62 39.79a2 2 0 1 1 -2.83 0 2 2 0 0 1 2.83 0z" fill="#e6e7e8" data-original="#e6e7e8" class=""></path><circle cx="5" cy="48" fill="#d1d3d4" r="2" data-original="#d1d3d4" class=""></circle><circle cx="49" cy="15" fill="#d1d3d4" r="2" data-original="#d1d3d4" class=""></circle><path d="m8.01 21.73a16.685 16.685 0 0 0 4.64-1.55 16.929 16.929 0 0 0 7.53-7.53 16.685 16.685 0 0 0 1.55-4.64 13.981 13.981 0 0 0 -13.72 13.72z" fill="#ee8700" data-original="#ee8700"></path><g fill="#ff9811"><path d="m8.91 26.96a12.838 12.838 0 0 1 -.55-1.79c1.19-1.5 2.6-3.16 4.29-4.99a16.929 16.929 0 0 0 7.53-7.53c1.83-1.69 3.49-3.1 4.99-4.29a12.838 12.838 0 0 1 1.79.55c.03.36.04.72.04 1.09a16.377 16.377 0 0 1 -.15 2.23 102.383 102.383 0 0 0 -14.62 14.62 16.377 16.377 0 0 1 -2.23.15c-.37 0-.73-.01-1.09-.04z" fill="#ff9811" data-original="#ff9811" class=""></path><path d="m36 22q0 .435-.03.87a13.991 13.991 0 0 1 -13.1 13.1q-.435.03-.87.03a14.324 14.324 0 0 1 -3.17-.36 101.678 101.678 0 0 0 8.83-7.98 101.678 101.678 0 0 0 7.98-8.83 14.324 14.324 0 0 1 .36 3.17z" fill="#ff9811" data-original="#ff9811" class=""></path><path d="m26.96 8.91a12.838 12.838 0 0 0 -1.79-.55 14.324 14.324 0 0 0 -3.17-.36 2.437 2.437 0 0 0 -.27.01 16.685 16.685 0 0 1 -1.55 4.64 16.929 16.929 0 0 1 -7.53 7.53 16.685 16.685 0 0 1 -4.64 1.55 2.437 2.437 0 0 0 -.01.27 14.324 14.324 0 0 0 .36 3.17 12.838 12.838 0 0 0 .55 1.79c.36.03.72.04 1.09.04a16.377 16.377 0 0 0 2.23-.15 16.976 16.976 0 0 0 14.62-14.62 16.377 16.377 0 0 0 .15-2.23c0-.37-.01-.73-.04-1.09z" fill="#ff9811" data-original="#ff9811" class=""></path></g><path d="m33.81 14.49a14 14 0 0 0 -4.3-4.3 13.826 13.826 0 0 0 -2.55-1.28c.03.36.04.72.04 1.09a16.377 16.377 0 0 1 -.15 2.23 16.976 16.976 0 0 1 -14.62 14.62 16.377 16.377 0 0 1 -2.23.15c-.37 0-.73-.01-1.09-.04a13.519 13.519 0 0 0 1.28 2.55 14.057 14.057 0 0 0 8.64 6.13 101.678 101.678 0 0 0 8.83-7.98 101.678 101.678 0 0 0 7.98-8.83 14.046 14.046 0 0 0 -1.83-4.34z" fill="#ffa733" data-original="#ffa733"></path><path d="m36 22q0 .435-.03.87c-1.7 2.01-3.78 4.26-6.31 6.79s-4.78 4.61-6.79 6.31q-.435.03-.87.03a14.324 14.324 0 0 1 -3.17-.36 101.678 101.678 0 0 0 8.83-7.98 101.678 101.678 0 0 0 7.98-8.83 14.324 14.324 0 0 1 .36 3.17z" fill="#ee8700" data-original="#ee8700"></path><path d="m39.68 4.32c-1.13-1.13-4.12-4.11-14.51 4.04a12.838 12.838 0 0 1 1.79.55 13.826 13.826 0 0 1 2.55 1.28c3.7-2.66 6.48-3.9 7.34-3.04s-.38 3.64-3.04 7.34a87.8 87.8 0 0 1 -8.98 10.34 87.8 87.8 0 0 1 -10.34 8.98c-3.7 2.66-6.48 3.9-7.34 3.04s.38-3.64 3.04-7.34a13.519 13.519 0 0 1 -1.28-2.55 12.838 12.838 0 0 1 -.55-1.79c-8.15 10.39-5.17 13.38-4.04 14.51s4.12 4.11 14.51-4.04a101.678 101.678 0 0 0 8.83-7.98 101.678 101.678 0 0 0 7.98-8.83c8.15-10.39 5.17-13.38 4.04-14.51z" fill="#e6e7e8" data-original="#e6e7e8" class=""></path><path d="m51 25h-2v-2h-2v2h-2v2h2v2h2v-2h2z" fill="#ee8700" data-original="#ee8700"></path><path d="m60 4h-2v-2h-2v2h-2v2h2v2h2v-2h2z" fill="#ff9811" data-original="#ff9811" class=""></path><path d="m29 48h-2v2h-2v2h2v2h2v-2h2v-2h-2z" fill="#ff9811" data-original="#ff9811" class=""></path><path d="m15 4h2v2h-2z" fill="#ffa733" data-original="#ffa733"></path><path d="m2 9h2v2h-2z" fill="#cc7400" data-original="#cc7400"></path><path d="m25 60h2v2h-2z" fill="#ffa733" data-original="#ffa733"></path><path d="m18 42h2v2h-2z" fill="#cc7400" data-original="#cc7400"></path><path d="m11 57h2v2h-2z" fill="#ffa733" data-original="#ffa733"></path></g></g></svg>