<svg xmlns="http://www.w3.org/2000/svg" version="1.1" xmlns:xlink="http://www.w3.org/1999/xlink" xmlns:svgjs="http://svgjs.com/svgjs" width="512" height="512" x="0" y="0" viewBox="0 0 256 256" style="enable-background:new 0 0 512 512" xml:space="preserve" class=""><g><g><g><g><path d="m46.961 238.657h-37.776c-1.674 0-2.607-1.934-1.566-3.244l17.422-21.922-17.422-21.923c-1.042-1.311-.108-3.244 1.566-3.244h37.776c1.525 0 2.966.696 3.914 1.889l17.51 22.033c.579.729.579 1.76 0 2.489l-17.51 22.033c-.948 1.193-2.39 1.889-3.914 1.889z" fill="#91b56b" data-original="#91b56b"></path></g><g><path d="m68.385 212.246-17.51-22.033c-.606-.763-1.415-1.32-2.317-1.624l14.827 18.657c.579.729.579 1.76 0 2.489l-17.51 22.033c-.949 1.194-2.39 1.889-3.914 1.889h-32.947l-1.395 1.756c-1.042 1.311-.108 3.244 1.566 3.244h37.776c1.525 0 2.966-.696 3.914-1.889l17.51-22.033c.579-.729.579-1.761 0-2.489z" fill="#76a34f" data-original="#76a34f"></path></g><g><path d="m32 182.49c-1.104 0-2-.896-2-2v-34.89c0-1.104.896-2 2-2s2 .896 2 2v34.891c0 1.104-.896 1.999-2 1.999z" fill="#414042" data-original="#414042" class=""></path></g><g><circle cx="32" cy="141.779" fill="#648940" r="12.778" data-original="#648940"></circle></g><g><path d="m38.181 130.598c1.015 1.832 1.597 3.938 1.597 6.181 0 7.057-5.721 12.778-12.778 12.778-2.243 0-4.349-.582-6.181-1.597 2.179 3.932 6.367 6.597 11.181 6.597 7.057 0 12.778-5.721 12.778-12.778 0-4.814-2.665-9.003-6.597-11.181z" fill="#5a7a39" data-original="#5a7a39"></path></g></g><g><g><path d="m106.961 238.657h-37.776c-1.674 0-2.607-1.934-1.566-3.244l17.422-21.922-17.422-21.922c-1.042-1.311-.108-3.244 1.566-3.244h37.776c1.525 0 2.966.696 3.914 1.889l17.51 22.033c.579.729.579 1.76 0 2.489l-17.51 22.033c-.948 1.192-2.39 1.888-3.914 1.888z" fill="#5e9cf7" data-original="#5e9cf7"></path></g><g><path d="m128.385 212.246-17.51-22.033c-.606-.763-1.415-1.32-2.317-1.624l14.827 18.657c.579.729.579 1.76 0 2.489l-17.51 22.033c-.949 1.194-2.39 1.889-3.914 1.889h-32.947l-1.395 1.756c-1.042 1.311-.108 3.244 1.566 3.244h37.776c1.525 0 2.966-.696 3.914-1.889l17.51-22.033c.579-.729.579-1.761 0-2.489z" fill="#478cf7" data-original="#478cf7"></path></g><g><path d="m92 182.49c-1.104 0-2-.896-2-2v-44.89c0-1.104.896-2 2-2s2 .896 2 2v44.891c0 1.104-.896 1.999-2 1.999z" fill="#414042" data-original="#414042" class=""></path></g><g><circle cx="92" cy="131.779" fill="#377de2" r="12.778" data-original="#377de2" class=""></circle></g><g><path d="m98.181 120.598c1.015 1.832 1.597 3.938 1.597 6.181 0 7.057-5.721 12.778-12.778 12.778-2.243 0-4.349-.582-6.181-1.597 2.179 3.932 6.367 6.597 11.181 6.597 7.057 0 12.778-5.721 12.778-12.778 0-4.814-2.665-9.003-6.597-11.181z" fill="#2266d3" data-original="#2266d3" class=""></path></g></g><g><g><path d="m166.961 238.657h-37.776c-1.674 0-2.607-1.934-1.566-3.244l17.422-21.922-17.422-21.922c-1.042-1.311-.108-3.244 1.566-3.244h37.776c1.525 0 2.966.696 3.914 1.889l17.51 22.033c.579.729.579 1.76 0 2.489l-17.51 22.033c-.948 1.192-2.39 1.888-3.914 1.888z" fill="#e8566f" data-original="#e8566f"></path></g><g><path d="m188.385 212.246-17.51-22.033c-.606-.763-1.415-1.32-2.317-1.624l14.827 18.657c.579.729.579 1.76 0 2.489l-17.51 22.033c-.949 1.194-2.39 1.889-3.914 1.889h-32.947l-1.395 1.756c-1.042 1.311-.108 3.244 1.566 3.244h37.776c1.525 0 2.966-.696 3.914-1.889l17.51-22.033c.579-.729.579-1.761 0-2.489z" fill="#e63950" data-original="#e63950"></path></g><g><path d="m152 182.49c-1.104 0-2-.896-2-2v-54.89c0-1.104.896-2 2-2s2 .896 2 2v54.891c0 1.104-.896 1.999-2 1.999z" fill="#414042" data-original="#414042" class=""></path></g><g><circle cx="152" cy="121.779" fill="#d10028" r="12.778" data-original="#d10028"></circle></g><g><path d="m158.181 110.597c1.015 1.832 1.597 3.938 1.597 6.181 0 7.057-5.721 12.778-12.778 12.778-2.243 0-4.349-.582-6.181-1.597 2.179 3.932 6.367 6.597 11.181 6.597 7.057 0 12.778-5.721 12.778-12.778 0-4.813-2.665-9.002-6.597-11.181z" fill="#b7022d" data-original="#b7022d"></path></g></g><g><g><path d="m226.961 238.657h-37.776c-1.674 0-2.607-1.934-1.566-3.244l17.422-21.922-17.422-21.922c-1.042-1.311-.108-3.244 1.566-3.244h37.776c1.525 0 2.966.696 3.914 1.889l17.51 22.033c.579.729.579 1.76 0 2.489l-17.51 22.033c-.948 1.192-2.39 1.888-3.914 1.888z" fill="#ffa91a" data-original="#ffa91a"></path></g><g><path d="m225.287 196.323h-.814c-1.104 0-2-.896-2-2s.896-2 2-2h.814c1.104 0 2 .896 2 2s-.896 2-2 2zm-8.814 0h-19c-1.104 0-2-.896-2-2s.896-2 2-2h19c1.104 0 2 .896 2 2s-.896 2-2 2z" fill="#ffc91d" data-original="#ffc91d" class=""></path></g><g><path d="m248.385 212.246-17.51-22.033c-.87-1.094-2.155-1.763-3.537-1.868l11.047 13.901c.579.729.579 1.76 0 2.489l-17.51 22.033c-.949 1.194-2.39 1.889-3.914 1.889h-23.973l-5.369 6.756c-1.042 1.311-.108 3.244 1.566 3.244h37.776c1.525 0 2.966-.696 3.914-1.889l17.51-22.033c.579-.729.579-1.761 0-2.489z" fill="#f79219" data-original="#f79219"></path></g><g><path d="m248.385 212.246-17.51-22.033c-.606-.763-1.415-1.32-2.317-1.624l14.827 18.657c.579.729.579 1.76 0 2.489l-17.51 22.033c-.949 1.194-2.39 1.889-3.914 1.889h-32.947l-1.395 1.756c-1.042 1.311-.108 3.244 1.566 3.244h37.776c1.525 0 2.966-.696 3.914-1.889l17.51-22.033c.579-.729.579-1.761 0-2.489z" fill="#ef7816" data-original="#ef7816"></path></g><g><path d="m212 182.49c-1.104 0-2-.896-2-2v-64.89c0-1.104.896-2 2-2s2 .896 2 2v64.891c0 1.104-.896 1.999-2 1.999z" fill="#414042" data-original="#414042" class=""></path></g></g><g><g><path d="m180.466 22.386c0 2.785 2.258 5.043 5.043 5.043h52.982c2.785 0 5.043-2.258 5.043-5.043 0-2.785-2.258-5.043-5.043-5.043h-52.982c-2.785 0-5.043 2.258-5.043 5.043z" fill="#7c3108" data-original="#7c3108" class=""></path></g><g><path d="m240.897 17.98c.393.718.637 1.53.637 2.406 0 2.785-2.258 5.043-5.043 5.043h-52.982c-.876 0-1.688-.244-2.406-.637.856 1.564 2.497 2.637 4.406 2.637h52.982c2.785 0 5.043-2.258 5.043-5.043 0-1.908-1.073-3.549-2.637-4.406z" fill="#6d2e03" data-original="#6d2e03" class=""></path></g><g><path d="m235.822 45.3v-17.871h-47.645v17.871c0 3.415 1.357 6.691 3.772 9.105l9.446 9.446c.708.708 1.105 1.667 1.105 2.668v4.963c0 1.001-.397 1.96-1.105 2.668l-9.446 9.446c-2.415 2.415-3.772 5.69-3.772 9.105v17.871h47.645v-17.871c0-3.415-1.357-6.691-3.772-9.106l-9.446-9.446c-.708-.708-1.105-1.667-1.105-2.668v-4.963c0-1.001.397-1.96 1.105-2.668l9.446-9.446c2.416-2.413 3.772-5.689 3.772-9.104z" fill="#e6e7e8" data-original="#e6e7e8" class=""></path></g><g><path d="m222.605 63.851 9.446-9.446c2.415-2.415 3.772-5.69 3.772-9.106v-17.87h-2v17.871c0 3.415-1.357 6.691-3.772 9.106l-9.446 9.446c-.708.708-1.105 1.667-1.105 2.668v4.963c0 1.001.397 1.96 1.105 2.668l9.446 9.446c2.415 2.415 3.772 5.69 3.772 9.106v17.871h2v-17.873c0-3.415-1.357-6.691-3.772-9.106l-9.446-9.446c-.708-.708-1.105-1.667-1.105-2.668v-4.963c0-1 .398-1.959 1.105-2.667z" fill="#d1d3d4" data-original="#d1d3d4"></path></g><g><path d="m230.672 44.325v-5.651c0-.521-.422-.943-.943-.943h-35.457c-.521 0-.943.422-.943.943v5.651c0 2.391.95 4.683 2.64 6.374l7.974 7.974c2.374 2.374 3.708 5.594 3.708 8.952v1.071c0 2.402 1.947 4.349 4.349 4.349 2.402 0 4.349-1.947 4.349-4.349v-1.071c0-3.358 1.334-6.578 3.708-8.952l7.974-7.974c1.691-1.691 2.641-3.984 2.641-6.374z" fill="#ffc91d" data-original="#ffc91d" class=""></path></g><g><path d="m204.575 90.285-8.607 8.607c-1.69 1.69-2.64 3.983-2.64 6.374v5.307h37.343v-5.307c0-2.391-.95-4.683-2.64-6.374l-8.607-8.607c-1.969-1.969-4.64-3.075-7.425-3.075-2.784-.001-5.455 1.105-7.424 3.075z" fill="#ffc91d" data-original="#ffc91d" class=""></path></g><g><path d="m180.466 115.614c0-2.785 2.258-5.043 5.043-5.043h52.982c2.785 0 5.043 2.258 5.043 5.043 0 2.785-2.258 5.043-5.043 5.043h-52.982c-2.785 0-5.043-2.258-5.043-5.043z" fill="#7c3108" data-original="#7c3108" class=""></path></g><g><path d="m240.897 111.208c.393.718.637 1.53.637 2.406 0 2.785-2.258 5.043-5.043 5.043h-52.982c-.876 0-1.688-.244-2.406-.637.856 1.564 2.497 2.637 4.406 2.637h52.982c2.785 0 5.043-2.258 5.043-5.043 0-1.908-1.073-3.549-2.637-4.406z" fill="#6d2e03" data-original="#6d2e03" class=""></path></g><g><circle cx="209.172" cy="77.551" fill="#ffc91d" r="2.039" data-original="#ffc91d" class=""></circle></g><g><circle cx="214.43" cy="82.595" fill="#ffc91d" r="3.005" data-original="#ffc91d" class=""></circle></g></g></g></g></svg>