<svg xmlns="http://www.w3.org/2000/svg" version="1.1" xmlns:xlink="http://www.w3.org/1999/xlink" xmlns:svgjs="http://svgjs.com/svgjs" width="512" height="512" x="0" y="0" viewBox="0 0 512 512" style="enable-background:new 0 0 512 512" xml:space="preserve" class=""><g><g><g><g><g><circle cx="256" cy="105" fill="#f9f9f9" r="90" data-original="#f9f9f9"></circle><path d="m346 105c0-49.706-40.294-90-90-90v180c49.706 0 90-40.294 90-90z" fill="#e2dff4" data-original="#e2dff4"></path><g><path d="m256 210c-57.897 0-105-47.103-105-105s47.103-105 105-105 105 47.103 105 105-47.103 105-105 105zm0-180c-41.355 0-75 33.645-75 75s33.645 75 75 75 75-33.645 75-75-33.645-75-75-75z" fill="#e273d3" data-original="#e273d3"></path></g><path d="m331 105c0 41.355-33.645 75-75 75v30c57.897 0 105-47.103 105-105s-47.103-105-105-105v30c41.355 0 75 33.645 75 75z" fill="#b473f1" data-original="#b473f1"></path><g><path d="m256 120h-30c-8.284 0-15-6.716-15-15s6.716-15 15-15h15v-15c0-8.284 6.716-15 15-15s15 6.716 15 15v30c0 8.284-6.716 15-15 15z" fill="#0a617d" data-original="#0a617d"></path></g><path d="m271 105v-30c0-8.284-6.716-15-15-15v60c8.284 0 15-6.716 15-15z" fill="#05303d" data-original="#05303d"></path></g></g></g><g><path d="m286 512h-60c-19.299 0-35-15.701-35-35v-60c0-19.299 15.701-35 35-35h60c19.299 0 35 15.701 35 35v60c0 19.299-15.701 35-35 35z" fill="#9ddff6" data-original="#9ddff6"></path><path d="m321 477v-60c0-19.299-15.701-35-35-35h-30v130h30c19.299 0 35-15.701 35-35z" fill="#8bb9ff" data-original="#8bb9ff"></path></g><g><path d="m477 512h-60c-19.299 0-35-15.701-35-35v-60c0-19.299 15.701-35 35-35h60c19.299 0 35 15.701 35 35v60c0 19.299-15.701 35-35 35z" fill="#e273d3" data-original="#e273d3"></path><path d="m512 477v-60c0-19.299-15.701-35-35-35h-30v130h30c19.299 0 35-15.701 35-35z" fill="#b473f1" data-original="#b473f1"></path></g><path d="m417 280h-146v-35c0-8.284-6.716-15-15-15s-15 6.716-15 15v35h-146c-24.813 0-45 20.187-45 45v10c0 8.284 6.716 15 15 15s15-6.716 15-15v-10c0-8.271 6.729-15 15-15h146v35c0 8.284 6.716 15 15 15s15-6.716 15-15v-35h146c8.271 0 15 6.729 15 15v10c0 8.284 6.716 15 15 15s15-6.716 15-15v-10c0-24.813-20.187-45-45-45z" fill="#f9f9f9" data-original="#f9f9f9"></path><path d="m271 345v-35h146c8.271 0 15 6.729 15 15v10c0 8.284 6.716 15 15 15s15-6.716 15-15v-10c0-24.813-20.187-45-45-45h-146v-35c0-8.284-6.716-15-15-15v130c8.284 0 15-6.716 15-15z" fill="#e2dff4" data-original="#e2dff4"></path><g><path d="m95 512h-60c-19.299 0-35-15.701-35-35v-60c0-19.299 15.701-35 35-35h60c19.299 0 35 15.701 35 35v60c0 19.299-15.701 35-35 35z" fill="#ffc178" data-original="#ffc178"></path><path d="m130 477v-60c0-19.299-15.701-35-35-35h-30v130h30c19.299 0 35-15.701 35-35z" fill="#ff936b" data-original="#ff936b"></path></g></g></g></svg>