<svg xmlns="http://www.w3.org/2000/svg" version="1.1" xmlns:xlink="http://www.w3.org/1999/xlink" xmlns:svgjs="http://svgjs.com/svgjs" width="512" height="512" x="0" y="0" viewBox="0 0 53 53" style="enable-background:new 0 0 512 512" xml:space="preserve" class=""><g><g id="_x32_1"><g><g><g><path d="m23.3931522 6.2290998v.6837912h-1.879324v-.6230684c0-1.0031953-.8126774-1.8345108-1.8345032-1.8345108-1.0133572 0-1.8345032.8211193-1.8345032 1.8345108v.6230683h-1.8793248v-.6837911c0-2.0513563 1.6624804-3.7138367 3.7138281-3.7138367 2.0502873 0 3.7138271 1.6636557 3.7138271 3.7138367z" fill="#5b5e8b" data-original="#5b5e8b" class=""></path></g><g><path d="m15.965 6.29h1.879v.623h-1.879z" fill="#312e4b" data-original="#312e4b" class=""></path></g><g><path d="m21.514 6.29h1.879v.623h-1.879z" fill="#312e4b" data-original="#312e4b" class=""></path></g><g><g><path d="m36.6598167 12.0428286v35.1014862c0 1.8448639-1.4955597 3.3404236-3.3404274 3.3404236h-27.4789648c-1.8448655-.000001-3.3404245-1.4955607-3.3404245-3.3404246v-35.1014852c0-1.8448658 1.495559-3.3404245 3.3404245-3.3404245h27.4789658c1.8448667-.0000001 3.3404264 1.4955587 3.3404264 3.3404245z" fill="#c7754f" data-original="#c7754f"></path></g><g><path d="m8.7151337 50.4807396h-2.8718229c-1.8512149 0-3.3421538-1.4910011-3.3421538-3.3321381v-35.102356c0-1.8511543 1.4909389-3.3420925 3.3421538-3.3420925h2.8718228c-1.8411989 0-3.342154 1.4909382-3.342154 3.3420925v35.102356c0 1.841137 1.5009551 3.3321381 3.3421541 3.3321381z" fill="#ab604b" data-original="#ab604b"></path></g><g><path d="m5.8404245 47.6215172c-.2631454 0-.4772038-.2140579-.4772038-.4772034v-35.1014852c0-.2631454.2140584-.4772034.4772038-.4772034h27.4789658c.2631454 0 .4772034.2140579.4772034.4772034v35.1014862c0 .2631454-.2140579.4772034-.4772034.4772034h-27.4789658z" fill="#deddff" data-original="#deddff" class=""></path></g><g><path d="m26.6981926 8.0263662v3.8971615c0 .6149549-.4985199 1.1134748-1.1134739 1.1134748h-12.0096216c-.6149549 0-1.1134748-.4985199-1.1134748-1.1134748v-3.8971615c0-.6149554.4985199-1.1134753 1.1134748-1.1134753h12.0096216c.614954 0 1.1134739.4985199 1.1134739 1.1134753z" fill="#5b5e8b" data-original="#5b5e8b" class=""></path></g><g><path d="m16.049757 13.0368681h-2.4715433c-.6203899 0-1.1207085-.5003185-1.1207085-1.110692v-3.9024468c0-.6104355.5003185-1.1107535 1.1207085-1.1107535h2.4715433c-.6203899 0-1.1207085.5003181-1.1207085 1.1107535v3.9024467c0 .6103736.5003186 1.1106921 1.1207085 1.1106921z" fill="#312e4b" data-original="#312e4b" class=""></path></g><g><g><path d="m12.5736618 39.9066467v4.4466438c0 .423893-.3460627.778614-.778614.778614h-4.4465924c-.423892 0-.778614-.3547211-.778614-.778614v-4.4466438c0-.4325523.354722-.7785645.778614-.7785645h4.4465923c.4325514.0000001.7786141.3460122.7786141.7785645z" fill="#65b9ff" data-original="#65b9ff" class=""></path></g><g><path d="m8.5249834 45.1319046h-1.176528c-.423892 0-.778614-.3547211-.778614-.778614v-4.4466438c0-.4325523.354722-.7785645.778614-.7785645h1.176528c-.423892 0-.778614.3460121-.778614.7785645v4.4466438c0 .4238929.354722.778614.778614.778614z" fill="#3e7fff" data-original="#3e7fff"></path></g><g><path d="m8.7320404 43.5513573-1.2099404-1.2099419c-.1420536-.1420517-.1420536-.3721771 0-.5142326.1420531-.1420517.37218-.1420517.5142331 0l.9528236.9528236 1.9926548-1.9926529c.1420536-.1420555.37218-.1420555.5142336 0 .1420536.1420517.1420536.3721771 0 .5142326l-2.2497711 2.2497712c-.1420498.1420479-.3721762.1420555-.5142336 0z" fill="#deddff" data-original="#deddff" class=""></path></g><g><g><path d="m14.7395287 40.5355797c0-.317646.261611-.5792198.579217-.5792198h12.7284937c.3176441 0 .5792179.2615738.5792179.5792198 0 .3238754-.2615738.579216-.5792179.579216h-12.7284938c-.317606 0-.5792169-.2553406-.5792169-.579216z" fill="#c6c6f7" data-original="#c6c6f7"></path></g><g><path d="m32.6290054 43.724411c0 .3238754-.2615738.579216-.5792198.579216h-16.731041c-.317606 0-.579217-.2553406-.579217-.579216 0-.3176079.261611-.5792198.579217-.5792198h16.731041c.317646 0 .5792198.2616119.5792198.5792198z" fill="#c6c6f7" data-original="#c6c6f7"></path></g></g></g></g></g><g><g><path d="m19.5791168 24.9627323c-.1381836 0-.25-.1123047-.25-.25v-3.7202148c0-.1381836.1118164-.25.25-.25s.25.1118164.25.25v3.7202148c0 .1376953-.1118164.25-.25.25z" fill="#5b5e8b" data-original="#5b5e8b" class=""></path></g><g><path d="m28.9243317 21.2464237h-18.690918c-.1381836 0-.25-.1118164-.25-.25v-2.4345703c0-.1381836.1118164-.25.25-.25s.25.1118164.25.25v2.1845703h18.190918v-2.1845703c0-.1381836.1118164-.25.25-.25s.25.1118164.25.25v2.4345703c0 .1381836-.1118164.25-.25.25z" fill="#5b5e8b" data-original="#5b5e8b" class=""></path></g><g><path d="m23.0249176 21.2464237h-6.8920898c-.1381836 0-.25-.1118164-.25-.25v-2.4345703c0-.1381836.1118164-.25.25-.25s.25.1118164.25.25v2.1845703h6.3920898v-2.1845703c0-.1381836.1118164-.25.25-.25s.25.1118164.25.25v2.4345703c0 .1381836-.1118164.25-.25.25z" fill="#5b5e8b" data-original="#5b5e8b" class=""></path></g><g><g><path d="m30.7865849 15.6005812v2.9687338c0 .210743-.1708393.3815842-.3815823.3815842h-2.9687347c-.210743 0-.3815842-.1708412-.3815842-.3815842v-2.9687338c0-.2107439.1708412-.3815842.3815842-.3815842h2.9687347c.2107429 0 .3815823.1708403.3815823.3815842z" fill="#fcb73e" data-original="#fcb73e"></path></g><g><path d="m28.7336617 18.9508991h-1.2973938c-.2136631 0-.3815842-.1679211-.3815842-.3815842v-2.9687338c0-.2137098.1679211-.3815842.3815842-.3815842h1.2973938c-.2060223 0-.3815823.1678743-.3815823.3815842v2.9687338c0 .2136632.17556.3815842.3815823.3815842z" fill="#fd982e" data-original="#fd982e"></path></g></g><g><g><path d="m24.8908653 15.6005812v2.9687338c0 .210743-.1708412.3815842-.3815842.3815842h-2.9687328c-.210743 0-.3815842-.1708412-.3815842-.3815842v-2.9687338c0-.2107439.1708412-.3815842.3815842-.3815842h2.9687328c.210743 0 .3815842.1708403.3815842.3815842z" fill="#65b9ff" data-original="#65b9ff" class=""></path></g><g><path d="m22.8379421 18.9508991h-1.2973938c-.2136631 0-.3815842-.1679211-.3815842-.3815842v-2.9687338c0-.2137098.1679211-.3815842.3815842-.3815842h1.2973938c-.2060242 0-.3815842.1678743-.3815842.3815842v2.9687338c.0000001.2136632.1755601.3815842.3815842.3815842z" fill="#3e7fff" data-original="#3e7fff"></path></g></g><g><g><path d="m17.9951458 15.6005812v2.9687338c0 .210743-.1708412.3815842-.3815842.3815842h-2.9687347c-.210743 0-.3815832-.1708412-.3815832-.3815842v-2.9687338c0-.2107439.1708403-.3815842.3815832-.3815842h2.9687347c.210743 0 .3815842.1708403.3815842.3815842z" fill="#46cc6b" data-original="#46cc6b"></path></g><g><path d="m15.9422216 18.9508991h-1.2973948c-.2136621 0-.3815832-.1679211-.3815832-.3815842v-2.9687338c0-.2137098.1679211-.3815842.3815832-.3815842h1.2973948c-.2060232 0-.3815842.1678743-.3815842.3815842v2.9687338c.0000001.2136632.175561.3815842.3815842.3815842z" fill="#179c5f" data-original="#179c5f" class=""></path></g></g><g><g><path d="m12.0994244 15.6005812v2.9687338c0 .210743-.1708403.3815842-.3815832.3815842h-2.9687348c-.210743 0-.3815832-.1708412-.3815832-.3815842v-2.9687338c0-.2107439.1708403-.3815842.3815832-.3815842h2.9687347c.210743 0 .3815833.1708403.3815833.3815842z" fill="#e83d62" data-original="#e83d62"></path></g><g><path d="m10.0465012 18.9508991h-1.2973948c-.2136621 0-.3815832-.1679211-.3815832-.3815842v-2.9687338c0-.2137098.1679211-.3815842.3815832-.3815842h1.2973948c-.2060232 0-.3815832.1678743-.3815832.3815842v2.9687338c-.0000001.2136632.1755599.3815842.3815832.3815842z" fill="#ce2955" data-original="#ce2955"></path></g></g></g><g><g><path d="m19.5791168 31.8142948c-.1381836 0-.25-.1123047-.25-.25v-3.7207031c0-.1376953.1118164-.25.25-.25s.25.1123047.25.25v3.7207031c0 .1376953-.1118164.25-.25.25z" fill="#5b5e8b" data-original="#5b5e8b" class=""></path></g><g><path d="m28.9243317 34.244957c-.1381836 0-.25-.1123047-.25-.25v-2.1845684h-18.190918v2.1845684c0 .1376953-.1118164.25-.25.25s-.25-.1123047-.25-.25v-2.4345684c0-.1376953.1118164-.25.25-.25h18.690918c.1381836 0 .25.1123047.25.25v2.4345684c0 .1376953-.1118164.25-.25.25z" fill="#5b5e8b" data-original="#5b5e8b" class=""></path></g><g><path d="m23.0249176 34.244957c-.1381836 0-.25-.1123047-.25-.25v-2.1845684h-6.3920898v2.1845684c0 .1376953-.1118164.25-.25.25s-.25-.1123047-.25-.25v-2.4345684c0-.1376953.1118164-.25.25-.25h6.8920898c.1381836 0 .25.1123047.25.25v2.4345684c0 .1376953-.1118164.25-.25.25z" fill="#5b5e8b" data-original="#5b5e8b" class=""></path></g><g><g><path d="m30.7865906 36.9564133v-2.9687347c0-.210743-.1708412-.3815804-.3815842-.3815804l-2.9687347-.0000038c-.210743 0-.3815842.1708412-.3815842.3815842v2.9687347c0 .210743.1708412.3815842.3815842.3815842h2.9687347c.210743-.0000001.3815842-.1708413.3815842-.3815842z" fill="#e83d62" data-original="#e83d62"></path></g><g><path d="m28.7336674 33.6060944h-1.2973957c-.2136631 0-.3815842.167923-.3815842.3815842v2.9687347c0 .2137108.1679211.3815842.3815842.3815842h1.2973957c-.2060242 0-.3815842-.1678734-.3815842-.3815842v-2.9687347c0-.2136613.17556-.3815842.3815842-.3815842z" fill="#ce2955" data-original="#ce2955"></path></g></g><g><g><path d="m24.8908691 36.9564133v-2.9687347c0-.210743-.1708412-.3815842-.3815842-.3815842h-2.9687328c-.210743 0-.3815842.1708412-.3815842.3815842v2.9687347c0 .210743.1708412.3815842.3815842.3815842h2.9687328c.210743-.0000001.3815842-.1708413.3815842-.3815842z" fill="#65b9ff" data-original="#65b9ff" class=""></path></g><g><path d="m22.8379459 33.6060944h-1.2973938c-.2136631 0-.3815842.167923-.3815842.3815842v2.9687347c0 .2137108.1679211.3815842.3815842.3815842h1.2973938c-.2060242 0-.3815842-.1678734-.3815842-.3815842v-2.9687347c.0000001-.2136613.1755601-.3815842.3815842-.3815842z" fill="#3e7fff" data-original="#3e7fff"></path></g></g><g><g><path d="m17.9951496 36.9564133v-2.9687347c0-.210743-.1708412-.3815842-.3815842-.3815842h-2.9687338c-.210743 0-.3815842.1708412-.3815842.3815842v2.9687347c0 .210743.1708412.3815842.3815842.3815842h2.9687338c.210743-.0000001.3815842-.1708413.3815842-.3815842z" fill="#46cc6b" data-original="#46cc6b"></path></g><g><path d="m15.9422264 33.6060944h-1.2973948c-.2136631 0-.3815842.167923-.3815842.3815842v2.9687347c0 .2137108.1679211.3815842.3815842.3815842h1.2973948c-.2060242 0-.3815842-.1678734-.3815842-.3815842v-2.9687347c0-.2136613.17556-.3815842.3815842-.3815842z" fill="#179c5f" data-original="#179c5f" class=""></path></g></g><g><g><path d="m12.0994291 36.9564133v-2.9687347c0-.210743-.1708412-.3815842-.3815842-.3815842h-2.9687337c-.210743 0-.3815842.1708412-.3815842.3815842v2.9687347c0 .210743.1708412.3815842.3815842.3815842h2.9687338c.2107429-.0000001.3815841-.1708413.3815841-.3815842z" fill="#fcb73e" data-original="#fcb73e"></path></g><g><path d="m10.0465059 33.6060944h-1.2973947c-.2136631 0-.3815842.167923-.3815842.3815842v2.9687347c0 .2137108.1679211.3815842.3815842.3815842h1.2973948c-.2060242 0-.3815842-.1678734-.3815842-.3815842v-2.9687347c0-.2136613.17556-.3815842.3815841-.3815842z" fill="#fd982e" data-original="#fd982e"></path></g></g></g><g><g><path d="m23.1702766 26.2255211c0 1.9875641-1.6060066 3.5935707-3.5878696 3.5935707-1.9875641 0-3.5935698-1.6060066-3.5935698-3.5935707 0-1.981863 1.6060057-3.5878696 3.5935698-3.5878696 1.981863-.0000001 3.5878696 1.6060066 3.5878696 3.5878696z" fill="#e83d62" data-original="#e83d62"></path></g><g><path d="m22.7664909 27.8811035c-.5986748 1.1550465-1.8029842 1.9368-3.1834087 1.9368-1.9861069 0-3.5918665-1.6058044-3.5918665-3.5919094 0-1.3803825.774703-2.5776863 1.9226999-3.1763153-1.5871734 3.0860806 1.7414341 6.4313469 4.8525753 4.8314247z" fill="#ce2955" data-original="#ce2955"></path></g></g></g><g><g><g><path d="m48.0189056 44.8584557-.0274314-17.6187458-3.8556443-.0084267.0274697 17.6271458z" fill="#179c5f" data-original="#179c5f" class=""></path></g><g><path d="m46.0911026 44.8584404-.0274696-17.622963-1.9278031-.0041942.0274697 17.6271458z" fill="#46cc6b" data-original="#46cc6b"></path></g><g><path d="m48.0168571 48.5585098.0025253-1.1707458-3.855629-.0084114-.0025215 1.1707458c-.0011444.5307312.2124405 1.0151024.5629234 1.3631973.3465652.3519669.8300056.5676765 1.360733.5688362 1.0653841.0023232 1.9296724-.8582534 1.9319688-1.9236221z" fill="#312e4b" data-original="#312e4b" class=""></path></g><g><path d="m47.9914665 27.2396965-1.917923-4.5915775-1.9377059 4.5831661z" fill="#ffaf93" data-original="#ffaf93" class=""></path></g><g><path d="m45.3317604 24.402626.7417831-1.754507.734211 1.7577266z" fill="#312e4b" data-original="#312e4b" class=""></path></g></g><g><g><path d="m43.8791008 46.9442978c0-.2429123.198494-.4388123.4414063-.4388123l3.5213585.0026398c.2402992 0 .4361954.1985168.4361954.4388161.0000038.2429123-.1958961.4388123-.4388084.4388084l-3.5213394-.002636c-.2429124-.0000038-.4388124-.1985168-.4388124-.438816z" fill="#deddff" data-original="#deddff" class=""></path></g><g><path d="m43.879097 46.0640564c0-.2429123.1984978-.4388123.4414101-.4388084l3.5213547.002636c.2402992 0 .4361992.1985168.4361992.4388161 0 .2429123-.1958961.4388123-.4388084.4388084l-3.5213432-.002636c-.2429125 0-.4388124-.1985169-.4388124-.4388161z" fill="#c6c6f7" data-original="#c6c6f7"></path></g><g><path d="m43.879097 45.183815c0-.2429123.198494-.4388123.4414063-.4388084l3.5213585.002636c.2402954.0000038.4361954.1985168.4361954.4388161.0000038.2429161-.1958961.4388123-.4388084.4388123l-3.5213394-.0026398c-.2429125-.0000001-.4388124-.198517-.4388124-.4388162z" fill="#deddff" data-original="#deddff" class=""></path></g></g></g><g><g><g><path d="m50.1846466 48.6619492-17.329956-17.3299542c-.6700439-.6799927-1.8300171-.2000122-1.8300171.7499981v17.3299561c0 .5900269.4799805 1.0700073 1.0700073 1.0700073h17.3299561c.9600219 0 1.4300537-1.1499634.7600097-1.8200073zm-9.2699585-2.2299805h-5.2900391c-.2999878 0-.539978-.2399902-.539978-.539978v-5.2900391c0-.4899902.5800171-.7299805.9299927-.3899536l5.2800293 5.289978c.3499756.3400269.0999756.9299927-.3800049.9299927z" fill="#fcb73e" data-original="#fcb73e"></path></g><g><path d="m50.490303 49.2650299h-17.1699066c-.5923004 0-1.0704575-.483593-1.0704575-1.0703926v-17.1700058c-.5976753-.0869217-1.2225456.358633-1.2225456 1.0595474v17.333004c0 .5867996.4781551 1.0649529 1.0704575 1.0649529h17.3329391c.7009469 0 1.1410981-.6194306 1.0595131-1.2171059z" fill="#fd982e" data-original="#fd982e"></path></g><g><g><g><g><path d="m48.191494 49.4063072v1.0758286h-1.0323868v-1.0758286c0-.2825546.2336044-.5161934.5161591-.5161934s.5162277.2336388.5162277.5161934z" fill="#312e4b" data-original="#312e4b" class=""></path></g><g><path d="m42.9916267 49.4063072v1.0758286h-1.0324516v-1.0758286c0-.2825546.2337341-.5161934.5162239-.5161934.2825546 0 .5162277.2336388.5162277.5161934z" fill="#312e4b" data-original="#312e4b" class=""></path></g><g><path d="m40.3889389 48.5043182v1.9778175h-1.0323868v-1.9778175c0-.2825203.2336731-.5161591.5162277-.5161591s.5161591.2336388.5161591.5161591z" fill="#312e4b" data-original="#312e4b" class=""></path></g><g><path d="m37.7862511 49.4063072v1.0758286h-1.0323181v-1.0758286c0-.2825546.2336044-.5161934.5161591-.5161934s.516159.2336388.516159.5161934z" fill="#312e4b" data-original="#312e4b" class=""></path></g><g><path d="m45.5888748 48.5043182v1.9778175h-1.0324554v-1.9778175c0-.2825203.2336731-.5161591.5162277-.5161591.2824898.0000001.5162277.2336388.5162277.5161591z" fill="#312e4b" data-original="#312e4b" class=""></path></g><g><path d="m35.189003 48.5043182v1.9778175h-1.0323181v-1.9778175c0-.2825203.2336044-.5161591.5161591-.5161591s.516159.2336388.516159.5161591z" fill="#312e4b" data-original="#312e4b" class=""></path></g></g></g></g></g></g></g></g></svg>