<svg id="youtube" xmlns="http://www.w3.org/2000/svg" width="79.584" height="55.722" viewBox="0 0 79.584 55.722">
  <path id="Path_320" data-name="Path 320" d="M77.945,8.719A9.971,9.971,0,0,0,70.93,1.7C64.7,0,39.791,0,39.791,0S14.881,0,8.653,1.639a10.175,10.175,0,0,0-7.014,7.08C0,14.946,0,27.861,0,27.861S0,40.841,1.639,47a9.973,9.973,0,0,0,7.015,7.015c6.293,1.7,31.138,1.7,31.138,1.7s24.911,0,31.138-1.639a9.971,9.971,0,0,0,7.015-7.014c1.639-6.228,1.639-19.142,1.639-19.142s.066-12.98-1.639-19.207Zm0,0" transform="translate(0 0)" fill="red"/>
  <path id="Path_321" data-name="Path 321" d="M204.969,126.346l20.715-11.931-20.715-11.931Zm0,0" transform="translate(-173.109 -86.555)" fill="#fff"/>
</svg>
