<svg xmlns="http://www.w3.org/2000/svg" width="100.029" height="100.081" viewBox="0 0 100.029 100.081">
  <g id="course" transform="translate(-0.133)">
    <path id="Path_23" data-name="Path 23" d="M448.975,130.76a1.552,1.552,0,0,1-1.464-1.573V110.256a1.388,1.388,0,0,0-1.388-1.388h-4.27a1.552,1.552,0,0,1-1.573-1.464,1.51,1.51,0,0,1,1.51-1.557h7.232a1.51,1.51,0,0,1,1.51,1.51V129.25a1.51,1.51,0,0,1-1.557,1.51Zm-10.313,48.833a1.51,1.51,0,0,1-1.51-1.51v-8.741a1.51,1.51,0,0,1,3.021,0v8.741A1.51,1.51,0,0,1,438.662,179.593Z" transform="translate(-350.37 -84.86)" fill="#5e6b75"/>
    <path id="Path_24" data-name="Path 24" d="M99.077,31.548H33.091a1.41,1.41,0,0,0-1.41,1.409v91.007a1.41,1.41,0,0,0,1.409,1.41H99.077a1.41,1.41,0,0,0,1.41-1.409V32.958a1.41,1.41,0,0,0-1.409-1.41Z" transform="translate(-25.293 -25.293)" fill="#b9def9"/>
    <path id="Path_25" data-name="Path 25" d="M63.8,0H1.543A1.41,1.41,0,0,0,.133,1.409V92.417a1.41,1.41,0,0,0,1.409,1.41H59.556l5.657-9.383V1.41A1.41,1.41,0,0,0,63.8,0Z" fill="#f0fcff"/>
    <path id="Path_26" data-name="Path 26" d="M315.622,0h-6.041a1.41,1.41,0,0,1,1.409,1.409V84.444l-.327,3.126,6.369-3.126V1.41A1.41,1.41,0,0,0,315.622,0Z" transform="translate(-248.093)" fill="#d7ecfe"/>
    <path id="Path_27" data-name="Path 27" d="M299.837,435.279v-7.973a1.41,1.41,0,0,1,1.409-1.41h7.973Z" transform="translate(-240.281 -341.453)" fill="#9dcffd"/>
    <path id="Path_28" data-name="Path 28" d="M435.249,40.85l-3.128,3.128-3.128-3.128V37.723a3.128,3.128,0,1,1,6.255,0Z" transform="translate(-343.83 -27.736)" fill="#d7ecfe"/>
    <path id="Path_29" data-name="Path 29" d="M425.142,141.2h-1.048a1.611,1.611,0,0,1-1.6-1.411l-1.387-11.1,1.671-9.383-1.671-9.383V67.553a1.41,1.41,0,0,1,1.409-1.41h4.2a1.41,1.41,0,0,1,1.41,1.409v61.141l-1.387,11.1A1.611,1.611,0,0,1,425.142,141.2Z" transform="translate(-337.507 -53.029)" fill="#808b95"/>
    <path id="Path_30" data-name="Path 30" d="M435.836,66.143H429.8a1.41,1.41,0,0,1,1.41,1.409v61.141l-1.387,11.1a1.6,1.6,0,0,1-.283.731,1.61,1.61,0,0,0,1.315.68h3.411a1.611,1.611,0,0,0,1.6-1.411l1.387-11.1-2.363-9.383,2.363-9.383V67.553a1.41,1.41,0,0,0-1.409-1.41Z" transform="translate(-344.262 -53.029)" fill="#5e6b75"/>
    <path id="Path_31" data-name="Path 31" d="M420.5,103.945H415.96a1.388,1.388,0,0,1-1.388-1.388V99.078a1.388,1.388,0,0,1,1.388-1.388H420.5l1.725,3.128Z" transform="translate(-332.267 -78.321)" fill="#ffe177"/>
    <path id="Path_32" data-name="Path 32" d="M444.495,97.69v6.255h4.653a1.388,1.388,0,0,0,1.388-1.388V99.078a1.388,1.388,0,0,0-1.388-1.388Z" transform="translate(-356.257 -78.321)" fill="#f9d45d"/>
    <path id="Path_33" data-name="Path 33" d="M430.49,305.743h-9.383V286.978h9.382l-2.363,9.382Z" transform="translate(-337.507 -230.078)" fill="#ffe177"/>
    <path id="Path_34" data-name="Path 34" d="M437.96,286.978H444v18.765H437.96Z" transform="translate(-351.018 -230.078)" fill="#f9d45d"/>
    <path id="Path_35" data-name="Path 35" d="M47.455,66.793l25.783,7.075,24.258,0V48.028H48.843a1.388,1.388,0,0,0-1.388,1.388Z" transform="translate(-37.939 -38.505)" fill="#d6edff"/>
    <path id="Path_36" data-name="Path 36" d="M269.368,48.028V69.257l3.021,4.609h3.021V49.416a1.388,1.388,0,0,0-1.388-1.388Z" transform="translate(-215.853 -38.505)" fill="#b9def9"/>
    <circle id="Ellipse_6" data-name="Ellipse 6" cx="3.128" cy="3.128" r="3.128" transform="translate(33.477 15.778)" fill="#ffe177"/>
    <path id="Path_37" data-name="Path 37" d="M83.279,113.556l-9.493,7.595L54.049,109.412l-6.594,6.594V124a1.388,1.388,0,0,0,1.388,1.388H72.689l.549-2.308,5.493,2.308H91.455l3.02-2.31-3.02-4.609-6.466-4.933A1.388,1.388,0,0,0,83.279,113.556Z" transform="translate(-37.939 -87.719)" fill="#abdc94"/>
    <g id="Group_5" data-name="Group 5" transform="translate(16.11 19.408)">
      <path id="Path_38" data-name="Path 38" d="M82.593,98.289l-1.879,1.879,18.64,15.977H105.4L84.478,98.217A1.388,1.388,0,0,0,82.593,98.289Zm35.526,17.856h4.653a1.388,1.388,0,0,0,1.388-1.388v-.922l-6.041-4.609Z" transform="translate(-80.714 -97.883)" fill="#8ccf75"/>
    </g>
    <path id="Path_39" data-name="Path 39" d="M72.474,311.509l-12.733,8.678-12.288-2.423V300.387A1.388,1.388,0,0,1,48.842,299H71.086a1.388,1.388,0,0,1,1.388,1.388v11.122Z" transform="translate(-37.939 -239.716)" fill="#d6edff"/>
    <path id="Path_40" data-name="Path 40" d="M47.455,361.767l3.784-4.608,8.726,2.263,4.467-5.539,5.734,2.229,2.309,4.5v6.023a1.388,1.388,0,0,1-1.388,1.388h-.921l-4.056-1.25-1.678,1.25H48.843a1.388,1.388,0,0,1-1.388-1.388Z" transform="translate(-37.939 -283.718)" fill="#abdc94"/>
    <path id="Path_41" data-name="Path 41" d="M79.732,358.325h5.734L70.085,345.359a1.388,1.388,0,0,0-1.967.18l-1.579,1.923Zm1.518-16.019-1.518,1.882,8.043,6.727v-5.1l-4.57-3.715a1.388,1.388,0,0,0-1.956.206Z" transform="translate(-53.239 -274.022)" fill="#8ccf75"/>
    <g id="Group_6" data-name="Group 6" transform="translate(8.005 42.415)">
      <path id="Path_42" data-name="Path 42" d="M91.389,213.924H41.348a1.51,1.51,0,1,0,0,3.02H91.389a1.51,1.51,0,1,0,0-3.02Zm0,6.255H41.348a1.51,1.51,0,1,0,0,3.02H91.389a1.51,1.51,0,1,0,0-3.02Zm0,15.358H72.624a1.51,1.51,0,0,0,0,3.021H91.389a1.51,1.51,0,0,0,0-3.021ZM92.9,243.3a1.51,1.51,0,0,0-1.51-1.51H72.624a1.51,1.51,0,1,0,0,3.02H91.389a1.51,1.51,0,0,0,1.51-1.51Zm-20.276,4.745a1.51,1.51,0,0,0,0,3.021H84.352a1.51,1.51,0,0,0,0-3.021Z" transform="translate(-39.838 -213.924)" fill="#b9def9"/>
    </g>
  </g>
</svg>
