<svg xmlns="http://www.w3.org/2000/svg" width="100" height="100" viewBox="0 0 100 100">
  <g id="fullstack" transform="translate(-1.388 -1.388)">
    <circle id="Ellipse_7" data-name="Ellipse 7" cx="46.5" cy="46.5" r="46.5" transform="translate(4.388 4.388)" fill="#e7efff"/>
    <ellipse id="Ellipse_8" data-name="Ellipse 8" cx="3.5" cy="3" rx="3.5" ry="3" transform="translate(4.388 1.388)" fill="#ff4d69"/>
    <ellipse id="Ellipse_9" data-name="Ellipse 9" cx="3" cy="2.5" rx="3" ry="2.5" transform="translate(95.388 15.388)" fill="#00c99f"/>
    <ellipse id="Ellipse_10" data-name="Ellipse 10" cx="2" cy="3" rx="2" ry="3" transform="translate(93.388 95.388)" fill="#ffa100"/>
    <ellipse id="Ellipse_11" data-name="Ellipse 11" cx="3" cy="2.5" rx="3" ry="2.5" transform="translate(1.388 89.388)" fill="#00c99f"/>
    <path id="Path_68" data-name="Path 68" d="M19.7,15h64.78a3.7,3.7,0,0,1,3.7,3.7v5.553H16V18.7A3.7,3.7,0,0,1,19.7,15Z" transform="translate(-1.118 -1.044)" fill="#323fd4"/>
    <path id="Path_69" data-name="Path 69" d="M32,21H88.452a3.7,3.7,0,0,1,3.7,3.7v5.553H32Z" transform="translate(-2.312 -1.491)" fill="#4e6aff"/>
    <path id="Path_70" data-name="Path 70" d="M16.7,21H30.583a5.553,5.553,0,0,1,5.553,5.553v3.7H13V24.7A3.7,3.7,0,0,1,16.7,21Z" transform="translate(-0.895 -1.491)" fill="#8fa2ff"/>
    <path id="Path_71" data-name="Path 71" d="M90.737,31V78.308A46.318,46.318,0,0,1,73.847,93.93H29.889A46.318,46.318,0,0,1,13,78.308V31Z" transform="translate(-0.895 -2.237)" fill="#a5bced"/>
    <g id="Group_39" data-name="Group 39" transform="translate(28.886 23.309)">
      <ellipse id="Ellipse_12" data-name="Ellipse 12" cx="0.5" cy="1" rx="0.5" ry="1" transform="translate(55.503 0.08)" fill="#fff"/>
      <ellipse id="Ellipse_13" data-name="Ellipse 13" cx="1.5" cy="1" rx="1.5" ry="1" transform="translate(49.503 0.08)" fill="#fff"/>
      <ellipse id="Ellipse_14" data-name="Ellipse 14" cx="0.5" cy="1" rx="0.5" ry="1" transform="translate(44.503 0.08)" fill="#fff"/>
      <ellipse id="Ellipse_15" data-name="Ellipse 15" cx="1.5" cy="1" rx="1.5" ry="1" transform="translate(-0.497 0.08)" fill="#fff"/>
    </g>
    <path id="Path_72" data-name="Path 72" d="M59.719,62.136V56.583a1.851,1.851,0,0,0-1.851-1.851H56.684a1.851,1.851,0,0,1-1.721-1.194c-.139-.379-.3-.74-.453-1.1a1.851,1.851,0,0,1,.379-2.054l.833-.842a1.851,1.851,0,0,0,0-2.619L51.8,43a1.851,1.851,0,0,0-2.619,0l-.842.833a1.851,1.851,0,0,1-2.054.379c-.361-.157-.722-.315-1.1-.453a1.851,1.851,0,0,1-1.194-1.721V40.851A1.851,1.851,0,0,0,42.136,39H36.583a1.851,1.851,0,0,0-1.851,1.851v1.185a1.851,1.851,0,0,1-1.194,1.721c-.379.139-.74.3-1.1.453a1.851,1.851,0,0,1-2.054-.379L29.541,43a1.851,1.851,0,0,0-2.619,0L23,46.922a1.851,1.851,0,0,0,0,2.619l.833.842a1.851,1.851,0,0,1,.379,2.054c-.157.361-.315.722-.453,1.1a1.851,1.851,0,0,1-1.721,1.194H20.851A1.851,1.851,0,0,0,19,56.583v5.553a1.851,1.851,0,0,0,1.851,1.851h1.185a1.851,1.851,0,0,1,1.721,1.194c.139.379.3.74.453,1.1a1.851,1.851,0,0,1-.379,2.054L23,69.178A1.851,1.851,0,0,0,23,71.8l3.924,3.924a1.851,1.851,0,0,0,2.619,0l.842-.833a1.851,1.851,0,0,1,2.054-.379c.361.157.722.315,1.1.453a1.851,1.851,0,0,1,1.194,1.721v1.185a1.851,1.851,0,0,0,1.851,1.851h5.553a1.851,1.851,0,0,0,1.851-1.851V76.684a1.851,1.851,0,0,1,1.194-1.721c.379-.139.74-.3,1.1-.453a1.851,1.851,0,0,1,2.054.379l.842.833a1.851,1.851,0,0,0,2.619,0L55.721,71.8a1.851,1.851,0,0,0,0-2.619l-.833-.842a1.851,1.851,0,0,1-.379-2.054c.157-.361.315-.722.453-1.1a1.851,1.851,0,0,1,1.721-1.194h1.185A1.851,1.851,0,0,0,59.719,62.136Z" transform="translate(-1.342 -2.833)" fill="#4e6aff"/>
    <circle id="Ellipse_16" data-name="Ellipse 16" cx="12.5" cy="12.5" r="12.5" transform="translate(25.388 43.388)" fill="#fff"/>
    <path id="Path_73" data-name="Path 73" d="M44.036,67.853v4a12.031,12.031,0,0,1-7.4,0v-4a8.329,8.329,0,0,1,0-14.853v6.3a1.851,1.851,0,0,0,1.027,1.657l1.851.925a1.851,1.851,0,0,0,1.647,0l1.851-.925a1.851,1.851,0,0,0,1.027-1.7V53a8.329,8.329,0,0,1,0,14.853Z" transform="translate(-2.317 -3.877)" fill="#8fa2ff"/>
    <path id="Path_74" data-name="Path 74" d="M72.776,44.627c-.5,0-.527-.139-2.508-2.119a.929.929,0,0,1,1.314-1.314l1.194,1.2L74.9,40.268a.929.929,0,1,1,1.314,1.314l-2.776,2.776A.925.925,0,0,1,72.776,44.627Z" transform="translate(-5.145 -2.908)" fill="#4e6aff"/>
    <path id="Path_75" data-name="Path 75" d="M89.254,43.851H80.925a.925.925,0,1,1,0-1.851h8.329a.925.925,0,1,1,0,1.851Z" transform="translate(-5.891 -3.057)" fill="#fff"/>
    <path id="Path_76" data-name="Path 76" d="M72.776,53.627c-.5,0-.527-.139-2.508-2.119a.929.929,0,0,1,1.314-1.314l1.194,1.2L74.9,49.268a.929.929,0,1,1,1.314,1.314l-2.776,2.776A.925.925,0,0,1,72.776,53.627Z" transform="translate(-5.145 -3.579)" fill="#4e6aff"/>
    <path id="Path_77" data-name="Path 77" d="M89.254,52.851H80.925a.925.925,0,1,1,0-1.851h8.329a.925.925,0,1,1,0,1.851Z" transform="translate(-5.891 -3.728)" fill="#fff"/>
    <path id="Path_78" data-name="Path 78" d="M72.776,62.627c-.5,0-.527-.139-2.508-2.119a.929.929,0,0,1,1.314-1.314l1.194,1.2L74.9,58.268a.929.929,0,0,1,1.314,1.314l-2.776,2.776A.925.925,0,0,1,72.776,62.627Z" transform="translate(-5.145 -4.25)" fill="#4e6aff"/>
    <path id="Path_79" data-name="Path 79" d="M89.254,61.851H80.925a.925.925,0,1,1,0-1.851h8.329a.925.925,0,1,1,0,1.851Z" transform="translate(-5.891 -4.399)" fill="#fff"/>
    <path id="Path_80" data-name="Path 80" d="M72.776,71.627c-.5,0-.527-.139-2.508-2.119a.929.929,0,0,1,1.314-1.314l1.194,1.2L74.9,67.268a.929.929,0,0,1,1.314,1.314l-2.776,2.776A.925.925,0,0,1,72.776,71.627Z" transform="translate(-5.145 -4.921)" fill="#4e6aff"/>
    <path id="Path_81" data-name="Path 81" d="M89.254,70.851H80.925a.925.925,0,1,1,0-1.851h8.329a.925.925,0,1,1,0,1.851Z" transform="translate(-5.891 -5.07)" fill="#fff"/>
    <path id="Path_82" data-name="Path 82" d="M89.254,79.851H80.925a.925.925,0,1,1,0-1.851h8.329a.925.925,0,1,1,0,1.851Z" transform="translate(-5.891 -5.741)" fill="#fff"/>
    <path id="Path_83" data-name="Path 83" d="M70,78.776c0-2.776,3.7-3.628,3.7-1.851a.925.925,0,0,1-.925.925.925.925,0,1,0,.463,1.731.925.925,0,1,1,.925,1.6A2.776,2.776,0,0,1,70,78.776Z" transform="translate(-5.145 -5.592)" fill="#7f96d1"/>
  </g>
</svg>
