<svg xmlns="http://www.w3.org/2000/svg" version="1.1" xmlns:xlink="http://www.w3.org/1999/xlink" width="512" height="512" x="0" y="0" viewBox="0 0 60 60" style="enable-background:new 0 0 512 512" xml:space="preserve"><g><path fill="#e1efff" d="M59 9v41a3 3 0 0 1-3 3H4a3 3 0 0 1-3-3V9l1-1h56z" opacity="1" data-original="#e1efff"></path><path fill="#4184a9" d="M59 4v5H1V4a3 3 0 0 1 3-3h52a3 3 0 0 1 3 3z" opacity="1" data-original="#4184a9"></path><path fill="#35718a" d="M49 34v6a3 3 0 0 1-3 3v1H14v-1a3 3 0 0 1-3-3v-6a3 3 0 0 1 3-3v-1h32v1a3 3 0 0 1 3 3z" opacity="1" data-original="#35718a"></path><path fill="#296172" d="M46 54v4a1 1 0 0 1-1 1h-6a1 1 0 0 1-1-1v-4zM22 54v4a1 1 0 0 1-1 1h-6a1 1 0 0 1-1-1v-4z" opacity="1" data-original="#296172"></path><rect width="38" height="12" x="11" y="19" fill="#4184a9" rx="3" opacity="1" data-original="#4184a9"></rect><rect width="38" height="12" x="11" y="43" fill="#4184a9" rx="3" opacity="1" data-original="#4184a9"></rect><circle cx="18" cy="25" r="2" fill="#86fdaa" opacity="1" data-original="#86fdaa"></circle><circle cx="26" cy="25" r="2" fill="#86fdaa" opacity="1" data-original="#86fdaa"></circle><circle cx="18" cy="37" r="2" fill="#6de08e" opacity="1" data-original="#6de08e"></circle><circle cx="26" cy="37" r="2" fill="#6de08e" opacity="1" data-original="#6de08e"></circle><circle cx="18" cy="49" r="2" fill="#86fdaa" opacity="1" data-original="#86fdaa"></circle><circle cx="26" cy="49" r="2" fill="#86fdaa" opacity="1" data-original="#86fdaa"></circle><path fill="#35718a" d="M45 26H34a1 1 0 0 1 0-2h11a1 1 0 0 1 0 2z" opacity="1" data-original="#35718a"></path><path fill="#296172" d="M45 38H34a1 1 0 0 1 0-2h11a1 1 0 0 1 0 2z" opacity="1" data-original="#296172"></path><path fill="#35718a" d="M45 50H34a1 1 0 0 1 0-2h11a1 1 0 0 1 0 2z" opacity="1" data-original="#35718a"></path><path fill="#e1efff" d="M6 6H5a1 1 0 0 1 0-2h1a1 1 0 0 1 0 2z" opacity="1" data-original="#e1efff"></path><path fill="#fde05e" d="M11 6h-1a1 1 0 0 1 0-2h1a1 1 0 0 1 0 2z" opacity="1" data-original="#fde05e"></path><path fill="#86fdaa" d="M16 6h-1a1 1 0 0 1 0-2h1a1 1 0 0 1 0 2z" opacity="1" data-original="#86fdaa"></path><path fill="#35718a" d="M55 6h-6a1 1 0 0 1 0-2h6a1 1 0 0 1 0 2z" opacity="1" data-original="#35718a"></path></g></svg>
