<svg xmlns="http://www.w3.org/2000/svg" width="100.029" height="100.029" viewBox="0 0 100.029 100.029">
  <g id="more" transform="translate(-0.112 0.001)">
    <g id="a" transform="translate(0.112 -0.001)">
      <g id="Group_38" data-name="Group 38">
        <path id="Path_61" data-name="Path 61" d="M318.951,11.342A12.372,12.372,0,0,0,308.9,1.289,119.981,119.981,0,0,0,296.128.148,114.623,114.623,0,0,0,283.4.21a10.287,10.287,0,0,0-9.337,9.626c-.254,3.116-.434,7.393-.416,13.244s.221,10.13.5,13.248a10.765,10.765,0,0,0,9.764,9.764c3.116.279,7.395.486,13.248.5s10.13-.162,13.244-.416a10.292,10.292,0,0,0,9.626-9.337,114.13,114.13,0,0,0,.063-12.73,120.037,120.037,0,0,0-1.141-12.769Z" transform="translate(-220.205 -0.005)" fill="#8fa2ff"/>
        <path id="Path_62" data-name="Path 62" d="M46.2,283.8a10.764,10.764,0,0,0-9.764-9.764c-3.118-.279-7.395-.486-13.248-.5s-10.13.162-13.244.416a10.29,10.29,0,0,0-9.626,9.337,114.14,114.14,0,0,0-.063,12.73A120.553,120.553,0,0,0,1.4,308.788a12.375,12.375,0,0,0,10.054,10.054,120.023,120.023,0,0,0,12.769,1.141,114.639,114.639,0,0,0,12.73-.062,10.289,10.289,0,0,0,9.337-9.626c.254-3.116.434-7.393.416-13.244s-.223-10.13-.5-13.248Z" transform="translate(-0.112 -220.096)" fill="#8fa2ff"/>
        <path id="Path_63" data-name="Path 63" d="M320.03,283.288a10.289,10.289,0,0,0-9.626-9.337c-3.116-.254-7.393-.434-13.244-.416s-10.13.221-13.248.5a10.767,10.767,0,0,0-9.764,9.764c-.279,3.118-.486,7.395-.5,13.248s.164,10.13.416,13.244a10.289,10.289,0,0,0,9.337,9.626,114.126,114.126,0,0,0,12.73.063,120.5,120.5,0,0,0,12.769-1.141,12.372,12.372,0,0,0,10.054-10.054,120.5,120.5,0,0,0,1.141-12.769A114.622,114.622,0,0,0,320.03,283.288Z" transform="translate(-220.206 -220.095)" fill="#8fa2ff"/>
        <g id="Group_37" data-name="Group 37" transform="translate(0.005)">
          <path id="Path_64" data-name="Path 64" d="M9.973,46.17c3.116.254,7.393.434,13.244.416s10.13-.223,13.248-.5a10.77,10.77,0,0,0,9.764-9.764c.279-3.118.486-7.395.5-13.248s-.164-10.13-.416-13.244A10.289,10.289,0,0,0,36.978.2,115.1,115.1,0,0,0,24.248.14,120.556,120.556,0,0,0,11.479,1.281,12.375,12.375,0,0,0,1.428,11.337,119.984,119.984,0,0,0,.287,24.1C.2,26.02.164,27.755.15,29.336v2.126c.02,2.1.1,3.876.2,5.371a10.289,10.289,0,0,0,9.626,9.337Z" transform="translate(-0.148 0.001)" fill="#a5bced"/>
          <path id="Path_65" data-name="Path 65" d="M283.408.21a10.287,10.287,0,0,0-9.337,9.626c-.254,3.116-.434,7.393-.416,13.244s.221,10.13.5,13.248a10.765,10.765,0,0,0,9.764,9.764c2.364.213,5.4.381,9.274.459A54.15,54.15,0,0,0,292.461.032c-3.8-.074-6.756.018-9.055.178Z" transform="translate(-220.219 -0.005)" fill="#a5bced"/>
          <path id="Path_66" data-name="Path 66" d="M36.457,274.038c-3.118-.279-7.395-.486-13.248-.5s-10.13.162-13.244.416a10.29,10.29,0,0,0-9.626,9.337c-.1,1.5-.18,3.272-.2,5.376v2.116c.006.612.014,1.246.029,1.9a53.808,53.808,0,0,0,23.79,5.507,52.462,52.462,0,0,0,22.721-5c-.076-3.937-.246-7.008-.461-9.4a10.765,10.765,0,0,0-9.764-9.764Z" transform="translate(-0.14 -220.096)" fill="#a5bced"/>
          <path id="Path_67" data-name="Path 67" d="M289.945,274.36c-2.092.088-3.87.205-5.376.34a10.767,10.767,0,0,0-9.764,9.764c-.137,1.524-.256,3.329-.344,5.457A54.345,54.345,0,0,0,289.945,274.36Z" transform="translate(-220.867 -220.759)" fill="#a5bced"/>
        </g>
      </g>
    </g>
  </g>
</svg>
