<svg id="project" xmlns="http://www.w3.org/2000/svg" width="100.029" height="100.029" viewBox="0 0 100.029 100.029">
  <g id="Group_36" data-name="Group 36">
    <g id="Group_9" data-name="Group 9" transform="translate(23.639 76.586)">
      <g id="Group_8" data-name="Group 8">
        <g id="Group_7" data-name="Group 7">
          <path id="Path_43" data-name="Path 43" d="M122.3,414.957a2.931,2.931,0,0,1-.813-4.064l11.722-17.583a2.93,2.93,0,1,1,4.877,3.251l-11.722,17.583A2.931,2.931,0,0,1,122.3,414.957Z" transform="translate(-120.999 -392.006)" fill="#396973"/>
        </g>
      </g>
    </g>
    <g id="Group_12" data-name="Group 12" transform="translate(58.806 76.584)">
      <g id="Group_11" data-name="Group 11">
        <g id="Group_10" data-name="Group 10">
          <path id="Path_44" data-name="Path 44" d="M313.214,414.139l-11.722-17.583a2.93,2.93,0,0,1,4.877-3.251l11.722,17.583a2.93,2.93,0,0,1-4.877,3.251Z" transform="translate(-300.999 -392)" fill="#2d4a59"/>
        </g>
      </g>
    </g>
    <g id="Group_15" data-name="Group 15" transform="translate(47.084)">
      <g id="Group_14" data-name="Group 14">
        <g id="Group_13" data-name="Group 13">
          <path id="Path_45" data-name="Path 45" d="M243.931,12.113A2.929,2.929,0,0,1,241,9.182V2.931a2.931,2.931,0,1,1,5.861,0V9.182A2.929,2.929,0,0,1,243.931,12.113Z" transform="translate(-241)" fill="#396973"/>
        </g>
      </g>
    </g>
    <path id="Path_46" data-name="Path 46" d="M258.931,9.182V2.931A2.929,2.929,0,0,0,256,0V12.113A2.929,2.929,0,0,0,258.931,9.182Z" transform="translate(-205.986)" fill="#2d4a59"/>
    <g id="Group_19" data-name="Group 19" transform="translate(6.056 9.182)">
      <g id="Group_18" data-name="Group 18">
        <g id="Group_17" data-name="Group 17">
          <g id="Group_16" data-name="Group 16">
            <path id="Path_47" data-name="Path 47" d="M118.916,117.333a2.929,2.929,0,0,1-2.931,2.931H33.931A2.929,2.929,0,0,1,31,117.333v-67.4A2.929,2.929,0,0,1,33.931,47h82.055a2.929,2.929,0,0,1,2.931,2.931Z" transform="translate(-31 -47)" fill="#f3f5f9"/>
          </g>
        </g>
      </g>
    </g>
    <path id="Path_48" data-name="Path 48" d="M299.958,49.931A2.929,2.929,0,0,0,297.027,47H256v73.263h41.027a2.929,2.929,0,0,0,2.931-2.931Z" transform="translate(-205.986 -37.818)" fill="#e1e6f0"/>
    <g id="Presentation_2_" transform="translate(17.779 17.974)">
      <g id="Group_20" data-name="Group 20" transform="translate(32.236 29.305)">
        <path id="Path_49" data-name="Path 49" d="M273,247.216l5.861,8.74L273,265.444H261.861L256,255.086,261.861,242a3.431,3.431,0,0,1,1.289.293Z" transform="translate(-256 -242)" fill="#ffbe40"/>
      </g>
      <g id="Group_24" data-name="Group 24">
        <g id="Group_23" data-name="Group 23">
          <g id="Group_22" data-name="Group 22">
            <g id="Group_21" data-name="Group 21">
              <path id="Path_50" data-name="Path 50" d="M105.653,92l-5.861,8.792L91,106.653A14.653,14.653,0,1,0,105.653,92Z" transform="translate(-91 -92)" fill="#5ab267"/>
            </g>
          </g>
        </g>
      </g>
      <path id="Path_51" data-name="Path 51" d="M105.653,92v11.722a2.931,2.931,0,0,1-2.931,2.931H91A14.658,14.658,0,0,1,105.653,92Z" transform="translate(-91 -92)" fill="#ffdf40"/>
      <g id="Group_25" data-name="Group 25" transform="translate(41.027)">
        <path id="Path_52" data-name="Path 52" d="M315.653,97.861H303.931a2.931,2.931,0,0,1,0-5.861h11.722a2.931,2.931,0,0,1,0,5.861Z" transform="translate(-301 -92)" fill="#b8c4d9"/>
      </g>
      <g id="Group_26" data-name="Group 26" transform="translate(41.027 11.722)">
        <path id="Path_53" data-name="Path 53" d="M315.653,157.861H303.931a2.931,2.931,0,0,1,0-5.861h11.722a2.931,2.931,0,0,1,0,5.861Z" transform="translate(-301 -152)" fill="#b8c4d9"/>
      </g>
      <g id="Group_29" data-name="Group 29" transform="translate(0 35.166)">
        <g id="Group_28" data-name="Group 28">
          <g id="Group_27" data-name="Group 27">
            <path id="Path_54" data-name="Path 54" d="M105.653,277.861H93.931a2.931,2.931,0,1,1,0-5.861h11.722a2.931,2.931,0,1,1,0,5.861Z" transform="translate(-91 -272)" fill="#cfd7e6"/>
          </g>
        </g>
      </g>
      <g id="Group_32" data-name="Group 32" transform="translate(0 46.888)">
        <g id="Group_31" data-name="Group 31">
          <g id="Group_30" data-name="Group 30">
            <path id="Path_55" data-name="Path 55" d="M105.653,337.861H93.931a2.931,2.931,0,1,1,0-5.861h11.722a2.931,2.931,0,1,1,0,5.861Z" transform="translate(-91 -332)" fill="#cfd7e6"/>
          </g>
        </g>
      </g>
    </g>
    <path id="Path_56" data-name="Path 56" d="M358.24,214.921v23.444a2.9,2.9,0,0,1-2.931,2.931H343V223.068l10.257-10.2a2.8,2.8,0,0,1,3.165-.645A2.923,2.923,0,0,1,358.24,214.921Z" transform="translate(-275.989 -170.572)" fill="#e63a3a"/>
    <g id="Group_35" data-name="Group 35" transform="translate(0 6.252)">
      <g id="Group_34" data-name="Group 34">
        <g id="Group_33" data-name="Group 33">
          <path id="Path_57" data-name="Path 57" d="M97.1,37.861H2.931a2.931,2.931,0,0,1,0-5.861H97.1a2.931,2.931,0,0,1,0,5.861Z" transform="translate(0 -32)" fill="#396973"/>
        </g>
      </g>
    </g>
    <path id="Path_58" data-name="Path 58" d="M303.084,32H256v5.861h47.084a2.931,2.931,0,1,0,0-5.861Z" transform="translate(-205.986 -25.748)" fill="#2d4a59"/>
    <path id="Path_59" data-name="Path 59" d="M225.653,242v23.444H213.931A2.9,2.9,0,0,1,211,262.514v-5.861a2.748,2.748,0,0,1,.879-2.051L223.6,242.879A2.748,2.748,0,0,1,225.653,242Z" transform="translate(-169.777 -194.721)" fill="#ff7559"/>
    <path id="Path_60" data-name="Path 60" d="M256,246.689v18.755h5.861V242a2.748,2.748,0,0,0-2.051.879Z" transform="translate(-205.986 -194.721)" fill="#e63a3a"/>
  </g>
</svg>
