<svg id="timeline" xmlns="http://www.w3.org/2000/svg" width="100.029" height="100.029" viewBox="0 0 100.029 100.029">
  <g id="Group_48" data-name="Group 48">
    <g id="Group_44" data-name="Group 44" transform="translate(29.501)">
      <g id="Group_43" data-name="Group 43">
        <g id="Group_42" data-name="Group 42">
          <circle id="Ellipse_17" data-name="Ellipse 17" cx="17" cy="17" r="17" transform="translate(3.888 3.388)" fill="#f9f9f9"/>
          <path id="Path_84" data-name="Path 84" d="M273.583,32.583A17.583,17.583,0,0,0,256,15V50.166A17.583,17.583,0,0,0,273.583,32.583Z" transform="translate(-235.486 -12.069)" fill="#e2dff4"/>
          <g id="Group_40" data-name="Group 40">
            <path id="Path_85" data-name="Path 85" d="M171.514,41.027a20.514,20.514,0,1,1,20.514-20.514A20.537,20.537,0,0,1,171.514,41.027Zm0-35.166a14.653,14.653,0,1,0,14.653,14.653A14.669,14.669,0,0,0,171.514,5.861Z" transform="translate(-151)" fill="#e273d3"/>
          </g>
          <path id="Path_86" data-name="Path 86" d="M270.653,20.514A14.669,14.669,0,0,1,256,35.166v5.861A20.514,20.514,0,0,0,256,0V5.861A14.669,14.669,0,0,1,270.653,20.514Z" transform="translate(-235.486)" fill="#b473f1"/>
          <g id="Group_41" data-name="Group 41" transform="translate(11.722 11.722)">
            <path id="Path_87" data-name="Path 87" d="M219.792,71.722h-5.861a2.931,2.931,0,1,1,0-5.861h2.931V62.931a2.931,2.931,0,1,1,5.861,0v5.861A2.931,2.931,0,0,1,219.792,71.722Z" transform="translate(-211 -60)" fill="#0a617d"/>
          </g>
          <path id="Path_88" data-name="Path 88" d="M258.931,68.792V62.931A2.931,2.931,0,0,0,256,60V71.722A2.931,2.931,0,0,0,258.931,68.792Z" transform="translate(-235.486 -48.278)" fill="#05303d"/>
        </g>
      </g>
    </g>
    <g id="Group_45" data-name="Group 45" transform="translate(37.315 74.631)">
      <path id="Path_89" data-name="Path 89" d="M209.56,407.4H197.838A6.846,6.846,0,0,1,191,400.56V388.838A6.846,6.846,0,0,1,197.838,382H209.56a6.846,6.846,0,0,1,6.838,6.838V400.56A6.846,6.846,0,0,1,209.56,407.4Z" transform="translate(-191 -382)" fill="#9ddff6"/>
      <path id="Path_90" data-name="Path 90" d="M268.7,400.56V388.838A6.846,6.846,0,0,0,261.861,382H256v25.4h5.861A6.846,6.846,0,0,0,268.7,400.56Z" transform="translate(-243.301 -382)" fill="#8bb9ff"/>
    </g>
    <g id="Group_46" data-name="Group 46" transform="translate(74.631 74.631)">
      <path id="Path_91" data-name="Path 91" d="M400.56,407.4H388.838A6.846,6.846,0,0,1,382,400.56V388.838A6.846,6.846,0,0,1,388.838,382H400.56a6.846,6.846,0,0,1,6.838,6.838V400.56A6.846,6.846,0,0,1,400.56,407.4Z" transform="translate(-382 -382)" fill="#e273d3"/>
      <path id="Path_92" data-name="Path 92" d="M459.7,400.56V388.838A6.846,6.846,0,0,0,452.861,382H447v25.4h5.861A6.846,6.846,0,0,0,459.7,400.56Z" transform="translate(-434.301 -382)" fill="#b473f1"/>
    </g>
    <path id="Path_93" data-name="Path 93" d="M121.7,239.768H93.176v-6.838a2.931,2.931,0,1,0-5.861,0v6.838H58.792A8.8,8.8,0,0,0,50,248.56v1.954a2.931,2.931,0,1,0,5.861,0V248.56a2.934,2.934,0,0,1,2.931-2.931H87.315v6.838a2.931,2.931,0,1,0,5.861,0v-6.838H121.7a2.934,2.934,0,0,1,2.931,2.931v1.954a2.931,2.931,0,1,0,5.861,0V248.56A8.8,8.8,0,0,0,121.7,239.768Z" transform="translate(-40.232 -185.065)" fill="#f9f9f9"/>
    <path id="Path_94" data-name="Path 94" d="M258.931,252.467v-6.838h28.524a2.934,2.934,0,0,1,2.931,2.931v1.954a2.931,2.931,0,1,0,5.861,0V248.56a8.8,8.8,0,0,0-8.792-8.792H258.931v-6.838A2.931,2.931,0,0,0,256,230v25.4A2.931,2.931,0,0,0,258.931,252.467Z" transform="translate(-205.986 -185.065)" fill="#e2dff4"/>
    <g id="Group_47" data-name="Group 47" transform="translate(0 74.631)">
      <path id="Path_95" data-name="Path 95" d="M18.56,407.4H6.838A6.846,6.846,0,0,1,0,400.56V388.838A6.846,6.846,0,0,1,6.838,382H18.56a6.846,6.846,0,0,1,6.838,6.838V400.56A6.846,6.846,0,0,1,18.56,407.4Z" transform="translate(0 -382)" fill="#ffc178"/>
      <path id="Path_96" data-name="Path 96" d="M77.7,400.56V388.838A6.846,6.846,0,0,0,70.861,382H65v25.4h5.861A6.846,6.846,0,0,0,77.7,400.56Z" transform="translate(-52.301 -382)" fill="#ff936b"/>
    </g>
  </g>
</svg>
